<?xml version="1.0" encoding="utf-8"?>
<!-- Generator: Adobe Illustrator 25.2.1, SVG Export Plug-In . SVG Version: 6.00 Build 0)  -->
<svg version="1.1" xmlns="http://www.w3.org/2000/svg" xmlns:xlink="http://www.w3.org/1999/xlink" x="0px" y="0px"
	 viewBox="0 0 748.8 398.4" style="enable-background:new 0 0 748.8 398.4;" xml:space="preserve">
<style type="text/css">
	.st0{fill:#FFFFFF;}
</style>
<g id="AO_QUADRADO">
	<g>
		<path class="st0" d="M68.11,381.5v1.22h-18.4v-1.22c3.76-0.3,5.59-2.75,4.07-6.4l-7.01-16.57h-31l-6.4,16.57
			c-1.52,4.17,0.3,6.1,4.07,6.4v1.22H0.11v-1.22c3.86-0.3,5.9-2.95,7.22-6.4l20.94-54.89c1.63-4.27,0.2-6.91-2.95-7.32v-1.32h8.84
			l26.53,63.53C62.12,378.55,64.25,381.19,68.11,381.5z M45.95,356.59l-15.35-36.8h-0.1l-14.03,36.8H45.95z"/>
		<path class="st0" d="M143.84,347.14c0,21.45-16.77,36.6-37.41,36.6c-20.53,0-37.31-15.15-37.31-36.6
			c0-21.35,16.77-36.6,37.31-36.6C127.07,310.54,143.84,325.79,143.84,347.14z M136.73,347.14c0-21.96-14.54-34.77-30.29-34.77
			c-15.76,0-30.29,12.81-30.29,34.77c0,22.06,14.54,34.87,30.29,34.87C122.19,382.01,136.73,369.2,136.73,347.14z"/>
		<path class="st0" d="M252.51,390.14c-5.08,12.71-23.58,10.27-45.54-6.3c-20.33-0.41-36.7-15.55-36.7-36.7
			c0-21.35,16.77-36.6,37.41-36.6c20.53,0,37.31,15.25,37.31,36.6c0,20.53-15.45,35.48-34.87,36.6c9.25,4.98,29.78,14.23,41.48,5.49
			L252.51,390.14z M207.68,382.01c15.65,0,30.19-12.81,30.19-34.87c0-21.96-14.54-34.77-30.19-34.77
			c-15.76,0-30.29,12.81-30.29,34.77C177.38,369.2,191.92,382.01,207.68,382.01z"/>
		<path class="st0" d="M317.26,311.56v1.22c-3.76,0.41-4.78,2.44-4.78,6.4v36.19c0,11.79-6.2,28.36-25.11,28.36
			c-17.28,0-29.48-10.57-29.48-28.36v-36.19c0-3.96-1.02-6-4.78-6.4v-1.22h16.47v1.22c-3.86,0.41-4.88,2.44-4.88,6.4v36.19
			c0,16.26,8.64,26.02,22.77,26.02c17.59,0,23.08-14.94,23.08-26.02v-36.19c0-3.96-1.02-6-4.78-6.4v-1.22H317.26z"/>
		<path class="st0" d="M387.29,381.5v1.22h-18.4v-1.22c3.76-0.3,5.59-2.75,4.07-6.4l-7.01-16.57h-31l-6.4,16.57
			c-1.52,4.17,0.3,6.1,4.07,6.4v1.22h-13.32v-1.22c3.86-0.3,5.9-2.95,7.22-6.4l20.94-54.89c1.63-4.27,0.2-6.91-2.95-7.32v-1.32h8.84
			l26.53,63.53C381.29,378.55,383.43,381.19,387.29,381.5z M365.13,356.59l-15.35-36.8h-0.1l-14.03,36.8H365.13z"/>
		<path class="st0" d="M458.34,347.14c0,21.55-16.37,35.58-39.34,35.58h-24.6v-1.22c3.86-0.3,4.88-2.34,4.88-6.4v-55.91
			c0-3.96-1.02-6-4.88-6.3v-1.32H419C441.98,311.56,458.34,325.69,458.34,347.14z M451.43,347.14c0-22.57-12.71-33.65-33.04-33.65
			h-12.4v67.4h12.4C438.73,380.89,451.43,369.71,451.43,347.14z"/>
		<path class="st0" d="M523.81,381.5v1.22h-10.47l-21.45-30.9c-0.51,0.1-0.92,0.1-1.42,0.1h-12.3v23.18c0,3.96,1.02,6,4.78,6.4v1.22
			h-16.37v-1.22c3.76-0.41,4.78-2.44,4.78-6.4v-55.91c0-3.96-1.02-6.1-4.78-6.4v-1.22h23.89c15.76,0,25.31,7.62,25.31,20.13
			c0,10.27-6.3,17.18-17.28,19.42l17.08,23.99C518.01,378.55,520.76,380.69,523.81,381.5z M508.86,331.69
			c0-11.08-6.3-18.3-19.01-18.3h-11.69v36.6h11.69C502.56,349.99,508.86,342.77,508.86,331.69z"/>
		<path class="st0" d="M594.86,381.5v1.22h-18.4v-1.22c3.76-0.3,5.59-2.75,4.07-6.4l-7.01-16.57h-31l-6.4,16.57
			c-1.52,4.17,0.31,6.1,4.07,6.4v1.22h-13.32v-1.22c3.86-0.3,5.9-2.95,7.22-6.4l20.94-54.89c1.63-4.27,0.2-6.91-2.95-7.32v-1.32
			h8.84l26.53,63.53C588.86,378.55,591,381.19,594.86,381.5z M572.7,356.59l-15.35-36.8h-0.1l-14.03,36.8H572.7z"/>
		<path class="st0" d="M665.91,347.14c0,21.55-16.37,35.58-39.34,35.58h-24.6v-1.22c3.86-0.3,4.88-2.34,4.88-6.4v-55.91
			c0-3.96-1.02-6-4.88-6.3v-1.32h24.6C649.55,311.56,665.91,325.69,665.91,347.14z M659,347.14c0-22.57-12.71-33.65-33.04-33.65
			h-12.4v67.4h12.4C646.29,380.89,659,369.71,659,347.14z"/>
		<path class="st0" d="M748.75,347.14c0,21.45-16.77,36.6-37.41,36.6c-20.53,0-37.31-15.15-37.31-36.6
			c0-21.35,16.77-36.6,37.31-36.6C731.98,310.54,748.75,325.79,748.75,347.14z M741.64,347.14c0-21.96-14.54-34.77-30.29-34.77
			c-15.76,0-30.29,12.81-30.29,34.77c0,22.06,14.54,34.87,30.29,34.87C727.1,382.01,741.64,369.2,741.64,347.14z"/>
	</g>
</g>
<g id="STUDIO">
	<g>
		<path class="st0" d="M243.05,252.58c-2.13,11.69-11.59,16.77-23.69,16.57c-7.73-0.2-18.6-2.64-24.9-7.12v-13.42h1.22
			c3.05,12.71,14.03,18.5,23.69,18.7c8.23,0.2,15.45-3.15,17.18-11.38c4.27-21.35-43.1-19.01-37.71-46.05
			c1.83-9.25,9.35-14.03,19.82-14.03c7.42,0,14.23,2.64,20.74,7.62v12.71h-1.12c-3.15-12.71-9.96-18.5-19.62-18.5
			c-7.01,0-13.62,3.66-14.43,11.28C201.98,228.99,247.22,229.91,243.05,252.58z"/>
		<path class="st0" d="M304.65,210.19h-1.22c-1.52-4.47-4.47-11.28-13.01-11.28h-11.49v61.6c0,4.07,1.02,6.1,4.78,6.4v1.22h-16.37
			v-1.22c3.76-0.3,4.78-2.34,4.78-6.4v-61.6h-11.49c-8.54,0-11.49,6.81-13.01,11.28h-1.22l1.93-13.22h54.39L304.65,210.19z"/>
		<path class="st0" d="M375.91,196.97v1.22c-3.76,0.41-4.78,2.44-4.78,6.4v36.19c0,11.79-6.2,28.36-25.11,28.36
			c-17.28,0-29.48-10.57-29.48-28.36V204.6c0-3.96-1.02-6-4.78-6.4v-1.22h16.47v1.22c-3.86,0.41-4.88,2.44-4.88,6.4v36.19
			c0,16.26,8.64,26.02,22.77,26.02c17.59,0,23.08-14.94,23.08-26.02V204.6c0-3.96-1.02-6-4.78-6.4v-1.22H375.91z"/>
		<path class="st0" d="M448.99,232.55c0,21.55-16.37,35.58-39.34,35.58h-24.6v-1.22c3.86-0.3,4.88-2.34,4.88-6.4V204.6
			c0-3.96-1.02-6-4.88-6.3v-1.32h24.6C432.63,196.97,448.99,211.1,448.99,232.55z M442.08,232.55c0-22.57-12.71-33.65-33.04-33.65
			h-12.4v67.4h12.4C429.37,266.3,442.08,255.12,442.08,232.55z"/>
		<path class="st0" d="M468.71,204.6v55.91c0,4.07,1.02,6.1,4.88,6.4v1.22h-16.47v-1.22c3.86-0.3,4.88-2.34,4.88-6.4V204.6
			c0-3.96-1.02-6-4.88-6.3v-1.32h16.47v1.32C469.73,198.6,468.71,200.63,468.71,204.6z"/>
		<path class="st0" d="M556.44,232.55c0,21.45-16.77,36.6-37.41,36.6c-20.53,0-37.31-15.15-37.31-36.6
			c0-21.35,16.77-36.6,37.31-36.6C539.66,195.96,556.44,211.21,556.44,232.55z M549.32,232.55c0-21.96-14.54-34.77-30.29-34.77
			c-15.76,0-30.29,12.81-30.29,34.77c0,22.06,14.54,34.87,30.29,34.87C534.78,267.42,549.32,254.61,549.32,232.55z"/>
	</g>
</g>
<g id="A_1_">
	<g>
		<path class="st0" d="M464.25,151.71v2.64h-39.86v-2.64c8.15-0.66,12.11-5.95,8.81-13.88l-15.2-35.9h-67.17l-13.88,35.9
			c-3.3,9.03,0.66,13.21,8.81,13.88v2.64H316.9v-2.64c8.37-0.66,12.77-6.39,15.64-13.88L377.91,18.9
			c3.52-9.25,0.44-14.98-6.39-15.86V0.18h19.16l57.48,137.65C451.25,145.32,455.88,151.05,464.25,151.71z M416.23,97.75
			l-33.26-79.73h-0.22l-30.39,79.73H416.23z"/>
	</g>
</g>
<g id="A">
	<g>
		<path class="st0" d="M301.41,137.84L358.9,0.19h19.16v2.86c-6.83,0.88-9.91,6.61-6.39,15.86l45.37,118.93
			c2.86,7.49,7.27,13.21,15.64,13.88v2.64h-28.85v-2.64c8.15-0.66,12.11-4.85,8.81-13.88l-13.88-35.9h-67.18l-15.2,35.9
			c-3.3,7.93,0.66,13.21,8.81,13.88v2.64h-39.86v-2.64C293.7,151.05,298.33,145.33,301.41,137.84z M397.22,97.75l-30.39-79.73h-0.22
			l-33.26,79.73H397.22z"/>
	</g>
</g>
</svg>
