<?xml version="1.0" encoding="utf-8"?>
<!-- Generator: Adobe Illustrator 25.2.1, SVG Export Plug-In . SVG Version: 6.00 Build 0)  -->
<svg version="1.1" id="Camada_1" xmlns="http://www.w3.org/2000/svg" xmlns:xlink="http://www.w3.org/1999/xlink" x="0px" y="0px"
	 viewBox="0 0 152.88 131.67" style="enable-background:new 0 0 152.88 131.67;" xml:space="preserve">
<style type="text/css">
	.st0{display:none;}
	.st1{display:inline;fill:#FFFFFF;}
	.st2{display:inline;enable-background:new    ;}
	.st3{fill:#FFFFFF;}
	.st4{display:inline;}
</style>
<g id="Agrupar_4_1_">
	<g id="STUDIO_AO_QUADRADO__STUDIO_AO_QUADRADO__STUDIO_AO_QUADRADO_1_" class="st0">
		<path class="st1" d="M76.42,35.95c22.72,0,41.13,18.42,41.13,41.13s-18.42,41.13-41.13,41.13S35.29,99.8,35.29,77.08
			S76.42,35.95,76.42,35.95z"/>
		<g class="st2">
			<path class="st3" d="M34.43,71.86c0.84,0.22,1.15,0.94,1.07,1.82c-0.06,0.56-0.3,1.34-0.66,1.77l-0.98-0.08l0.01-0.09
				c0.94-0.15,1.43-0.91,1.5-1.61c0.06-0.6-0.14-1.14-0.73-1.32c-1.53-0.44-1.64,3.02-3.57,2.47c-0.66-0.19-0.97-0.76-0.9-1.52
				c0.04-0.54,0.28-1.02,0.68-1.46l0.92,0.08l-0.01,0.08c-0.94,0.15-1.4,0.62-1.46,1.32c-0.04,0.51,0.19,1.01,0.73,1.12
				C32.48,74.71,32.81,71.42,34.43,71.86z"/>
		</g>
		<g class="st2">
			<path class="st3" d="M32.19,66.76l-0.02,0.09c-0.34,0.05-0.87,0.17-0.98,0.79l-0.15,0.82l4.42,0.81
				c0.29,0.05,0.45,0.01,0.52-0.26l0.09,0.02l-0.22,1.17l-0.09-0.02c0.03-0.27-0.1-0.37-0.4-0.43l-4.42-0.81l-0.15,0.82
				c-0.11,0.61,0.34,0.91,0.64,1.08l-0.02,0.09l-0.92-0.31l0.72-3.9L32.19,66.76z"/>
		</g>
		<g class="st2">
			<path class="st3" d="M32.9,61l0.09,0.03c-0.05,0.27,0.07,0.39,0.34,0.47l2.52,0.79c0.82,0.26,1.84,1.05,1.43,2.36
				c-0.38,1.2-1.38,1.82-2.62,1.44l-2.52-0.79c-0.28-0.09-0.44-0.06-0.55,0.19l-0.09-0.03l0.36-1.15l0.09,0.03
				c-0.06,0.28,0.06,0.39,0.34,0.48l2.52,0.79c1.13,0.35,2-0.04,2.31-1.02c0.38-1.22-0.54-1.93-1.31-2.17l-2.52-0.79
				c-0.28-0.09-0.44-0.06-0.55,0.19l-0.09-0.03L32.9,61z"/>
		</g>
		<g class="st2">
			<path class="st3" d="M37.7,56.59c1.43,0.66,1.86,2.17,1.15,3.69l-0.75,1.63l-0.08-0.04c0.1-0.27-0.01-0.39-0.28-0.52l-3.7-1.71
				c-0.26-0.12-0.43-0.12-0.57,0.13l-0.09-0.04l0.75-1.63C34.84,56.59,36.28,55.94,37.7,56.59z M37.49,57.05
				c-1.5-0.69-2.62-0.19-3.24,1.16l-0.38,0.82l4.46,2.06l0.38-0.82C39.34,58.92,38.98,57.74,37.49,57.05z"/>
		</g>
		<g class="st2">
			<path class="st3" d="M36.8,54.15l3.54,2.03c0.26,0.15,0.42,0.16,0.58-0.08L41,56.14l-0.6,1.04l-0.08-0.04
				c0.12-0.26,0.03-0.39-0.23-0.54l-3.54-2.03c-0.25-0.14-0.42-0.15-0.58,0.08L35.9,54.6l0.6-1.04l0.08,0.05
				C36.46,53.86,36.55,54,36.8,54.15z"/>
		</g>
		<g class="st2">
			<path class="st3" d="M42.26,49.63c1.28,0.9,1.47,2.54,0.6,3.77c-0.87,1.22-2.47,1.58-3.75,0.68c-1.27-0.9-1.47-2.54-0.61-3.76
				C39.38,49.09,40.99,48.74,42.26,49.63z M41.96,50.06c-1.31-0.92-2.68-0.6-3.35,0.34c-0.66,0.94-0.51,2.34,0.79,3.27
				c1.31,0.93,2.69,0.6,3.35-0.33C43.43,52.39,43.28,50.99,41.96,50.06z"/>
		</g>
		<g class="st2">
		</g>
		<g class="st2">
			<path class="st3" d="M49.05,46.15l0.06,0.06l-0.95,0.95L48.1,47.1c0.18-0.21,0.15-0.43-0.12-0.54l-1.22-0.49l-1.6,1.6l0.52,1.19
				c0.14,0.29,0.33,0.3,0.54,0.12l0.06,0.06l-0.69,0.69l-0.06-0.06c0.18-0.22,0.15-0.46,0.04-0.7l-1.75-3.91
				c-0.14-0.3-0.35-0.37-0.53-0.23l-0.07-0.07l0.46-0.46l4.64,1.91C48.59,46.31,48.84,46.34,49.05,46.15z M46.62,46.01l-2.69-1.11
				l-0.01,0.01l1.17,2.62L46.62,46.01z"/>
		</g>
		<g class="st2">
			<path class="st3" d="M51.9,40.76c0.96,1.24,0.66,2.86-0.53,3.78c-1.19,0.91-2.83,0.79-3.79-0.45c-0.95-1.23-0.66-2.86,0.52-3.78
				C49.3,39.4,50.95,39.53,51.9,40.76z M51.49,41.08c-0.98-1.27-2.39-1.36-3.3-0.66c-0.91,0.7-1.18,2.09-0.2,3.36
				c0.98,1.27,2.39,1.37,3.3,0.67C52.2,43.74,52.47,42.35,51.49,41.08z"/>
		</g>
		<g class="st2">
		</g>
		<g class="st2">
			<path class="st3" d="M60.7,39.5c0.1,0.99-1.18,1.46-3.16,1.12c-1.33,0.65-2.9,0.22-3.61-1.15c-0.72-1.38-0.14-2.93,1.2-3.62
				c1.33-0.69,2.93-0.26,3.64,1.12c0.69,1.33,0.19,2.82-1.03,3.54c0.77,0.01,2.41-0.08,2.87-1.03L60.7,39.5z M57.53,40.48
				c1.01-0.52,1.53-1.84,0.79-3.27c-0.74-1.42-2.11-1.76-3.12-1.24c-1.02,0.53-1.53,1.85-0.8,3.27C55.13,40.66,56.51,41,57.53,40.48
				z"/>
		</g>
		<g class="st2">
			<path class="st3" d="M63.21,32.6l0.03,0.08c-0.25,0.12-0.27,0.28-0.17,0.56l0.88,2.49c0.29,0.81,0.26,2.1-1.04,2.56
				c-1.19,0.42-2.29-0.01-2.72-1.23l-0.88-2.49c-0.1-0.27-0.22-0.39-0.48-0.32l-0.03-0.08l1.13-0.4l0.03,0.08
				c-0.26,0.12-0.28,0.29-0.18,0.56l0.88,2.49c0.4,1.12,1.23,1.58,2.2,1.24c1.21-0.43,1.22-1.59,0.95-2.35l-0.88-2.49
				c-0.1-0.27-0.22-0.39-0.48-0.32l-0.03-0.08L63.21,32.6z"/>
		</g>
		<g class="st2">
			<path class="st3" d="M69.92,36.29l0.02,0.09l-1.31,0.29l-0.02-0.09c0.26-0.08,0.36-0.28,0.19-0.52l-0.76-1.07l-2.21,0.49
				l-0.2,1.28c-0.04,0.32,0.12,0.43,0.39,0.39l0.02,0.09l-0.95,0.21l-0.02-0.09c0.27-0.08,0.37-0.3,0.41-0.57l0.63-4.24
				c0.05-0.33-0.09-0.5-0.33-0.48l-0.02-0.09l0.63-0.14l2.89,4.11C69.45,36.18,69.64,36.33,69.92,36.29z M67.95,34.87l-1.67-2.38
				l-0.01,0l-0.42,2.84L67.95,34.87z"/>
		</g>
		<g class="st2">
			<path class="st3" d="M74.88,33.32c0.14,1.57-0.96,2.69-2.63,2.84l-1.79,0.16l-0.01-0.09c0.28-0.05,0.34-0.2,0.31-0.5l-0.36-4.06
				c-0.03-0.29-0.11-0.43-0.4-0.43L70,31.15l1.79-0.16C73.46,30.84,74.74,31.76,74.88,33.32z M74.37,33.36
				c-0.15-1.64-1.14-2.36-2.62-2.23l-0.9,0.08l0.44,4.9l0.9-0.08C73.67,35.9,74.52,35,74.37,33.36z"/>
		</g>
		<g class="st2">
			<path class="st3" d="M79.9,35.95l0,0.09l-0.76-0.02l-1.5-2.3c-0.04,0.01-0.07,0.01-0.1,0l-0.9-0.03l-0.05,1.69
				c-0.01,0.29,0.06,0.44,0.33,0.48l0,0.09l-1.19-0.04l0-0.09c0.28-0.02,0.35-0.17,0.36-0.46l0.12-4.08
				c0.01-0.29-0.06-0.45-0.33-0.48l0-0.09l1.74,0.05c1.15,0.03,1.83,0.61,1.8,1.52c-0.02,0.75-0.5,1.24-1.3,1.38l1.19,1.79
				C79.48,35.72,79.67,35.88,79.9,35.95z M78.92,32.28c0.03-0.81-0.42-1.35-1.34-1.38l-0.85-0.03l-0.08,2.67l0.85,0.03
				C78.42,33.6,78.89,33.09,78.92,32.28z"/>
		</g>
		<g class="st2">
			<path class="st3" d="M85.04,36.69l-0.01,0.09l-1.33-0.2l0.01-0.09c0.27,0.02,0.43-0.14,0.36-0.42l-0.33-1.27l-2.24-0.34
				l-0.64,1.13c-0.16,0.29-0.04,0.44,0.22,0.51l-0.01,0.09l-0.96-0.14l0.01-0.09c0.28,0.02,0.46-0.15,0.59-0.38l2.11-3.73
				c0.16-0.29,0.09-0.5-0.13-0.56l0.01-0.1l0.64,0.1l1.23,4.87C84.64,36.41,84.77,36.62,85.04,36.69z M83.71,34.65L83,31.83l-0.01,0
				l-1.41,2.5L83.71,34.65z"/>
		</g>
		<g class="st2">
			<path class="st3" d="M90.74,35.68c-0.43,1.51-1.86,2.17-3.47,1.71l-1.73-0.49l0.02-0.09c0.28,0.06,0.39-0.07,0.47-0.35l1.12-3.92
				c0.08-0.28,0.05-0.44-0.22-0.54l0.03-0.09l1.73,0.49C90.3,32.86,91.17,34.18,90.74,35.68z M90.25,35.54
				c0.45-1.58-0.22-2.61-1.64-3.02l-0.87-0.25L86.39,37l0.87,0.25C88.69,37.66,89.8,37.13,90.25,35.54z"/>
		</g>
		<g class="st2">
			<path class="st3" d="M96.63,38.2c-0.63,1.43-2.2,1.94-3.58,1.33c-1.37-0.61-2.04-2.11-1.4-3.54c0.63-1.42,2.2-1.94,3.57-1.34
				C96.6,35.26,97.27,36.78,96.63,38.2z M96.16,37.99c0.65-1.46,0.06-2.75-0.99-3.22c-1.05-0.47-2.4-0.04-3.05,1.42
				c-0.65,1.47-0.06,2.76,0.99,3.22C94.16,39.89,95.51,39.46,96.16,37.99z"/>
		</g>
		<g class="st2">
		</g>
		<g class="st2">
		</g>
		<g class="st2">
			<path class="st3" d="M102.14,43.49c-0.62,0.61-1.4,0.51-2.11,0c-0.45-0.34-1-0.94-1.19-1.47l0.56-0.8l0.07,0.05
				c-0.35,0.89,0.06,1.69,0.63,2.11c0.48,0.36,1.05,0.46,1.5,0.04c1.15-1.09-1.78-2.94-0.32-4.33c0.5-0.48,1.15-0.44,1.77-0.01
				c0.44,0.31,0.74,0.75,0.92,1.32l-0.53,0.76l-0.07-0.05c0.34-0.89,0.18-1.52-0.4-1.93c-0.42-0.29-0.97-0.35-1.33,0.07
				C100.67,40.36,103.33,42.31,102.14,43.49z"/>
		</g>
		<g class="st2">
			<path class="st3" d="M107.67,44.14l-0.07-0.06c0.13-0.32,0.29-0.84-0.18-1.24l-0.63-0.55l-2.94,3.4
				c-0.19,0.22-0.24,0.39-0.04,0.58l-0.06,0.07l-0.9-0.78l0.06-0.07c0.22,0.16,0.38,0.1,0.57-0.13l2.94-3.4l-0.63-0.55
				c-0.47-0.41-0.96-0.17-1.26,0l-0.07-0.06l0.74-0.64l3,2.59L107.67,44.14z"/>
		</g>
		<g class="st2">
			<path class="st3" d="M112.28,47.66l-0.07,0.06c-0.21-0.18-0.37-0.14-0.58,0.06l-1.95,1.78c-0.64,0.58-1.83,1.06-2.76,0.04
				c-0.85-0.93-0.88-2.11,0.08-2.98l1.95-1.78c0.21-0.19,0.27-0.35,0.11-0.57l0.07-0.06l0.81,0.89l-0.07,0.06
				c-0.21-0.19-0.37-0.14-0.58,0.05l-1.95,1.78c-0.88,0.8-0.98,1.74-0.29,2.51c0.86,0.95,1.94,0.51,2.54-0.03l1.95-1.78
				c0.21-0.19,0.27-0.35,0.11-0.57l0.07-0.06L112.28,47.66z"/>
		</g>
		<g class="st2">
			<path class="st3" d="M113.66,54.02c-1.29,0.9-2.81,0.51-3.77-0.87l-1.03-1.47l0.07-0.05c0.18,0.22,0.34,0.19,0.59,0.02l3.34-2.34
				c0.24-0.17,0.32-0.31,0.17-0.56l0.08-0.06l1.03,1.47C115.1,51.56,114.94,53.13,113.66,54.02z M113.37,53.61
				c1.35-0.94,1.48-2.17,0.63-3.38l-0.52-0.74l-4.03,2.82l0.52,0.74C110.82,54.26,112.02,54.55,113.37,53.61z"/>
		</g>
		<g class="st2">
			<path class="st3" d="M116.22,54.47l-3.53,2.04c-0.26,0.15-0.35,0.29-0.23,0.54l-0.08,0.04l-0.6-1.04l0.08-0.04
				c0.16,0.23,0.33,0.22,0.58,0.08l3.53-2.04c0.25-0.14,0.34-0.28,0.22-0.54l0.08-0.05l0.6,1.04l-0.08,0.05
				C116.64,54.32,116.47,54.33,116.22,54.47z"/>
		</g>
		<g class="st2">
			<path class="st3" d="M117.37,61.47c-1.42,0.65-2.94-0.01-3.56-1.38c-0.62-1.36-0.12-2.94,1.3-3.58c1.42-0.65,2.94,0.01,3.56,1.37
				C119.29,59.25,118.78,60.82,117.37,61.47z M117.15,61c1.46-0.66,1.87-2.02,1.39-3.06c-0.48-1.05-1.77-1.62-3.22-0.96
				c-1.47,0.67-1.88,2.02-1.4,3.06C114.4,61.08,115.68,61.66,117.15,61z"/>
		</g>
		<g class="st2">
		</g>
		<g class="st2">
			<path class="st3" d="M116.94,69.09l-0.09,0.02l-0.34-1.3l0.09-0.02c0.09,0.26,0.3,0.34,0.53,0.17l1.04-0.8l-0.57-2.19l-1.29-0.15
				c-0.32-0.03-0.43,0.13-0.38,0.41l-0.09,0.02l-0.24-0.94l0.09-0.02c0.09,0.27,0.32,0.36,0.58,0.39l4.26,0.47
				c0.33,0.04,0.49-0.11,0.46-0.34l0.09-0.02l0.16,0.62l-4,3.04C117.04,68.61,116.89,68.81,116.94,69.09z M118.29,67.07l2.32-1.76
				l0-0.01l-2.86-0.32L118.29,67.07z"/>
		</g>
		<g class="st2">
			<path class="st3" d="M120.14,74.28c-1.55,0.2-2.8-0.88-2.99-2.38c-0.19-1.49,0.76-2.84,2.31-3.03c1.54-0.19,2.8,0.88,2.99,2.37
				C122.63,72.73,121.68,74.08,120.14,74.28z M120.07,73.76c1.59-0.2,2.38-1.37,2.24-2.51c-0.14-1.14-1.2-2.08-2.79-1.88
				c-1.6,0.2-2.39,1.37-2.25,2.51C117.42,73.03,118.48,73.96,120.07,73.76z"/>
		</g>
		<g class="st2">
		</g>
		<g class="st2">
			<path class="st3" d="M116.78,82.5c-0.91-0.42-0.66-1.76,0.63-3.29c0.11-1.48,1.27-2.61,2.81-2.53c1.56,0.08,2.6,1.36,2.52,2.87
				c-0.08,1.5-1.25,2.66-2.81,2.58c-1.5-0.08-2.53-1.26-2.53-2.68c-0.4,0.65-1.15,2.12-0.56,3L116.78,82.5z M117.54,79.27
				c-0.06,1.14,0.82,2.25,2.42,2.33c1.6,0.08,2.59-0.93,2.65-2.07c0.06-1.15-0.82-2.26-2.42-2.34
				C118.59,77.11,117.6,78.12,117.54,79.27z"/>
		</g>
		<g class="st2">
			<path class="st3" d="M121.47,88.15l-0.09-0.02c0.02-0.28-0.11-0.38-0.39-0.43l-2.59-0.5c-0.84-0.16-1.95-0.83-1.69-2.19
				c0.24-1.24,1.16-1.97,2.44-1.72l2.59,0.5c0.28,0.05,0.44,0.01,0.53-0.25l0.09,0.02l-0.23,1.18l-0.09-0.02
				c0.02-0.28-0.11-0.38-0.39-0.44l-2.59-0.5c-1.17-0.22-1.98,0.26-2.18,1.28c-0.24,1.26,0.75,1.86,1.55,2.01l2.59,0.5
				c0.28,0.05,0.44,0.01,0.53-0.25l0.09,0.02L121.47,88.15z"/>
		</g>
		<g class="st2">
			<path class="st3" d="M114.9,92.08l-0.08-0.03l0.41-1.28l0.08,0.03c-0.06,0.27,0.07,0.45,0.35,0.43l1.31-0.12l0.69-2.15
				l-1.01-0.82c-0.26-0.2-0.43-0.12-0.54,0.14l-0.08-0.03l0.3-0.93l0.08,0.03c-0.06,0.28,0.07,0.48,0.28,0.64l3.34,2.68
				c0.26,0.21,0.48,0.17,0.57-0.04l0.09,0.03l-0.2,0.61l-5,0.42C115.24,91.73,115.01,91.82,114.9,92.08z M117.13,91.1l2.9-0.24
				l0-0.01l-2.24-1.8L117.13,91.1z"/>
		</g>
		<g class="st2">
			<path class="st3" d="M114.97,97.87c-1.42-0.67-1.84-2.19-1.12-3.7l0.76-1.62l0.08,0.04c-0.1,0.26,0,0.39,0.27,0.52l3.69,1.74
				c0.26,0.12,0.43,0.12,0.57-0.13l0.09,0.04l-0.76,1.62C117.83,97.89,116.39,98.53,114.97,97.87z M115.19,97.41
				c1.49,0.7,2.62,0.21,3.25-1.14l0.38-0.82l-4.45-2.09l-0.38,0.82C113.35,95.52,113.7,96.71,115.19,97.41z"/>
		</g>
		<g class="st2">
			<path class="st3" d="M110.16,100.86l-0.08-0.05l0.41-0.65l2.74-0.12c0.01-0.04,0.03-0.06,0.05-0.09l0.48-0.76l-1.43-0.9
				c-0.25-0.15-0.41-0.17-0.58,0.05l-0.08-0.05l0.64-1.01l0.07,0.05c-0.12,0.25-0.04,0.39,0.21,0.54l3.45,2.17
				c0.24,0.15,0.42,0.17,0.58-0.05l0.08,0.05l-0.93,1.48c-0.61,0.97-1.45,1.27-2.23,0.78c-0.63-0.4-0.82-1.06-0.53-1.82l-2.14,0.12
				C110.57,100.62,110.33,100.71,110.16,100.86z M113.82,101.88c0.69,0.43,1.38,0.32,1.87-0.46l0.45-0.72l-2.26-1.42l-0.45,0.72
				C112.93,100.78,113.13,101.45,113.82,101.88z"/>
		</g>
		<g class="st2">
			<path class="st3" d="M106.91,104.92l-0.07-0.06l0.84-1.04l0.07,0.06c-0.16,0.23-0.1,0.44,0.18,0.53l1.26,0.36l1.42-1.76
				l-0.65-1.12c-0.17-0.28-0.36-0.26-0.55-0.06l-0.07-0.06l0.61-0.75l0.07,0.06c-0.16,0.23-0.1,0.47,0.03,0.7l2.15,3.71
				c0.17,0.29,0.38,0.33,0.55,0.17l0.08,0.06l-0.41,0.5l-4.82-1.41C107.35,104.72,107.11,104.72,106.91,104.92z M109.34,104.81
				l2.79,0.82l0-0.01l-1.44-2.48L109.34,104.81z"/>
		</g>
		<g class="st2">
			<path class="st3" d="M104.9,110.35c-1.09-1.14-0.93-2.7,0.28-3.86l1.3-1.24l0.06,0.06c-0.19,0.21-0.14,0.37,0.07,0.58l2.82,2.95
				c0.2,0.21,0.36,0.26,0.58,0.09l0.07,0.07l-1.3,1.24C107.55,111.4,105.98,111.48,104.9,110.35z M105.26,110
				c1.14,1.19,2.37,1.13,3.44,0.11l0.65-0.62l-3.4-3.55l-0.65,0.62C104.23,107.58,104.12,108.81,105.26,110z"/>
		</g>
		<g class="st2">
			<path class="st3" d="M99.75,114.17c-0.92-1.27-0.57-2.88,0.65-3.76c1.21-0.88,2.85-0.69,3.77,0.57c0.91,1.26,0.57,2.88-0.65,3.76
				C102.3,115.62,100.66,115.43,99.75,114.17z M100.17,113.86c0.94,1.3,2.34,1.44,3.28,0.77s1.25-2.05,0.31-3.35
				c-0.94-1.31-2.35-1.44-3.28-0.77C99.54,111.18,99.23,112.56,100.17,113.86z"/>
		</g>
		<g class="st2">
		</g>
		<g class="st2">
		</g>
		<g class="st2">
			<path class="st3" d="M92.42,116.25c-0.21-0.84,0.26-1.46,1.07-1.82c0.52-0.22,1.31-0.39,1.87-0.29l0.41,0.89l-0.08,0.04
				c-0.59-0.75-1.49-0.8-2.14-0.52c-0.55,0.24-0.93,0.68-0.79,1.28c0.37,1.54,3.44-0.05,3.9,1.91c0.16,0.67-0.19,1.21-0.89,1.53
				c-0.49,0.23-1.02,0.26-1.61,0.12l-0.39-0.84l0.07-0.03c0.6,0.75,1.22,0.92,1.86,0.63c0.46-0.21,0.79-0.66,0.61-1.19
				C95.86,116.57,92.83,117.88,92.42,116.25z"/>
		</g>
		<g class="st2">
			<path class="st3" d="M89.06,120.7l0.08-0.03c0.21,0.27,0.57,0.67,1.16,0.47l0.79-0.27l-1.45-4.25c-0.1-0.28-0.21-0.4-0.48-0.33
				l-0.03-0.08l1.13-0.38l0.03,0.08c-0.25,0.11-0.28,0.27-0.18,0.55l1.45,4.25l0.79-0.27c0.59-0.2,0.63-0.74,0.63-1.09l0.08-0.03
				l0.18,0.96l-3.76,1.28L89.06,120.7z"/>
		</g>
		<g class="st2">
			<path class="st3" d="M83.68,122.89l-0.02-0.09c0.26-0.09,0.3-0.25,0.25-0.53l-0.54-2.58c-0.18-0.84,0.02-2.12,1.37-2.4
				c1.23-0.26,2.26,0.31,2.53,1.58l0.54,2.58c0.06,0.28,0.16,0.41,0.44,0.38l0.02,0.09l-1.18,0.25l-0.02-0.09
				c0.27-0.09,0.31-0.25,0.25-0.53l-0.54-2.58c-0.24-1.16-1.01-1.73-2.02-1.52c-1.25,0.26-1.42,1.41-1.26,2.21l0.54,2.58
				c0.06,0.28,0.16,0.41,0.44,0.39l0.02,0.09L83.68,122.89z"/>
		</g>
		<g class="st2">
			<path class="st3" d="M77.49,120.86c-0.12-1.57,0.99-2.68,2.66-2.81l1.79-0.14l0.01,0.09c-0.28,0.04-0.34,0.2-0.32,0.49l0.32,4.07
				c0.02,0.29,0.11,0.43,0.39,0.43l0.01,0.1l-1.79,0.14C78.89,123.35,77.62,122.42,77.49,120.86z M78,120.82
				c0.13,1.64,1.12,2.37,2.59,2.26l0.9-0.07l-0.39-4.9l-0.9,0.07C78.73,118.29,77.87,119.18,78,120.82z"/>
		</g>
		<g class="st2">
			<path class="st3" d="M75.77,122.84l0.07-4.08c0-0.3-0.07-0.45-0.35-0.47l0-0.09l1.2,0.02l0,0.09c-0.28,0.02-0.36,0.17-0.36,0.46
				l-0.07,4.08c0,0.29,0.07,0.44,0.35,0.47l0,0.1l-1.2-0.02l0-0.1C75.69,123.28,75.77,123.13,75.77,122.84z"/>
		</g>
		<g class="st2">
			<path class="st3" d="M69.2,120.3c0.16-1.56,1.49-2.53,2.99-2.38c1.49,0.15,2.59,1.38,2.43,2.93c-0.16,1.55-1.49,2.53-2.98,2.38
				C70.15,123.08,69.04,121.85,69.2,120.3z M69.72,120.35c-0.16,1.59,0.8,2.63,1.94,2.75s2.29-0.7,2.46-2.3
				c0.16-1.6-0.8-2.64-1.94-2.76S69.88,118.75,69.72,120.35z"/>
		</g>
		<g class="st2">
		</g>
		<g class="st2">
			<path class="st3" d="M62.83,116.09l0.02-0.08l1.29,0.36l-0.02,0.08c-0.27-0.05-0.45,0.08-0.41,0.37l0.16,1.3l2.18,0.61l0.78-1.04
				c0.19-0.26,0.1-0.43-0.16-0.53l0.02-0.09l0.94,0.26l-0.02,0.09c-0.28-0.05-0.47,0.09-0.63,0.31l-2.56,3.44
				c-0.2,0.27-0.15,0.48,0.06,0.57l-0.03,0.09l-0.62-0.17l-0.61-4.99C63.19,116.41,63.1,116.18,62.83,116.09z M63.89,118.27
				l0.35,2.89l0.01,0l1.71-2.31L63.89,118.27z"/>
		</g>
		<g class="st2">
			<path class="st3" d="M56.74,116.23c0.62-1.44,2.17-1.97,3.56-1.38c1.38,0.59,2.07,2.09,1.45,3.52c-0.61,1.43-2.17,1.97-3.55,1.39
				C56.82,119.17,56.13,117.67,56.74,116.23z M57.22,116.44c-0.63,1.47-0.02,2.75,1.04,3.2c1.06,0.45,2.4,0.01,3.03-1.46
				c0.63-1.48,0.03-2.75-1.03-3.21C59.19,114.52,57.85,114.96,57.22,116.44z"/>
		</g>
		<g class="st2">
		</g>
		<g class="st2">
			<path class="st3" d="M51.34,109.17c0.82-0.57,1.85,0.32,2.52,2.21c1.22,0.84,1.61,2.42,0.76,3.71c-0.86,1.3-2.49,1.55-3.75,0.72
				c-1.25-0.83-1.66-2.43-0.8-3.73c0.83-1.25,2.37-1.54,3.59-0.83c-0.36-0.68-1.24-2.06-2.3-2L51.34,109.17z M53.74,111.46
				c-0.95-0.63-2.35-0.44-3.24,0.91c-0.88,1.34-0.51,2.7,0.44,3.33c0.96,0.63,2.36,0.44,3.24-0.9
				C55.07,113.46,54.7,112.1,53.74,111.46z"/>
		</g>
		<g class="st2">
			<path class="st3" d="M44.1,110.35l0.06-0.07c0.23,0.16,0.38,0.1,0.57-0.12l1.74-1.98c0.57-0.65,1.7-1.26,2.74-0.35
				c0.95,0.83,1.11,2,0.25,2.97l-1.74,1.98c-0.19,0.22-0.23,0.38-0.05,0.58l-0.06,0.07l-0.9-0.79l0.06-0.07
				c0.23,0.16,0.39,0.1,0.58-0.12l1.74-1.98c0.78-0.89,0.78-1.84,0-2.52c-0.96-0.85-1.99-0.29-2.52,0.32l-1.74,1.98
				c-0.19,0.22-0.23,0.38-0.05,0.58l-0.06,0.07L44.1,110.35z"/>
		</g>
		<g class="st2">
			<path class="st3" d="M44.03,102.7l0.07-0.06l0.89,1l-0.07,0.06c-0.2-0.19-0.42-0.17-0.55,0.09l-0.56,1.19l1.51,1.69l1.21-0.46
				c0.3-0.12,0.32-0.31,0.15-0.53l0.07-0.06l0.65,0.72l-0.07,0.06c-0.2-0.2-0.45-0.18-0.7-0.08l-4,1.53
				c-0.31,0.12-0.39,0.32-0.25,0.52l-0.07,0.06l-0.43-0.48l2.16-4.53C44.17,103.17,44.2,102.93,44.03,102.7z M43.76,105.12
				l-1.25,2.62l0.01,0.01l2.68-1.03L43.76,105.12z"/>
		</g>
		<g class="st2">
			<path class="st3" d="M39,99.85c1.3-0.89,2.81-0.49,3.77,0.89l1.02,1.48l-0.07,0.05c-0.18-0.22-0.34-0.2-0.59-0.03l-3.36,2.31
				c-0.24,0.16-0.32,0.31-0.18,0.55l-0.08,0.05l-1.02-1.48C37.54,102.3,37.71,100.73,39,99.85z M39.29,100.26
				c-1.36,0.93-1.5,2.15-0.66,3.38l0.51,0.75l4.05-2.79l-0.51-0.75C41.84,99.63,40.64,99.33,39.29,100.26z"/>
		</g>
		<g class="st2">
			<path class="st3" d="M38.84,94.18l0.08-0.04l0.35,0.68L38,97.25c0.02,0.03,0.04,0.06,0.05,0.09l0.42,0.8l1.5-0.78
				c0.26-0.13,0.35-0.27,0.25-0.53l0.08-0.04l0.55,1.06l-0.08,0.04c-0.15-0.23-0.32-0.23-0.58-0.09l-3.62,1.89
				c-0.26,0.13-0.36,0.27-0.25,0.53l-0.08,0.04l-0.81-1.55c-0.53-1.02-0.36-1.89,0.45-2.32c0.66-0.35,1.32-0.17,1.84,0.46l0.97-1.91
				C38.84,94.66,38.89,94.41,38.84,94.18z M36.12,96.83c-0.72,0.37-0.97,1.03-0.54,1.85l0.39,0.76l2.37-1.24l-0.39-0.76
				C37.52,96.62,36.84,96.46,36.12,96.83z"/>
		</g>
		<g class="st2">
			<path class="st3" d="M36.97,89.33l0.08-0.03l0.47,1.25l-0.08,0.03c-0.12-0.25-0.33-0.31-0.54-0.11l-0.95,0.91l0.8,2.12l1.3,0.01
				c0.32,0,0.41-0.18,0.33-0.44l0.08-0.03l0.34,0.91l-0.08,0.03c-0.12-0.26-0.35-0.33-0.62-0.33l-4.29-0.01
				c-0.33,0-0.48,0.16-0.42,0.39l-0.09,0.03l-0.23-0.6L36.72,90C36.92,89.81,37.05,89.6,36.97,89.33z M35.84,91.48l-2.12,2l0,0.01
				l2.87,0.01L35.84,91.48z"/>
		</g>
		<g class="st2">
			<path class="st3" d="M33.31,84.85c1.53-0.36,2.8,0.56,3.19,2.19l0.41,1.75l-0.09,0.02c-0.09-0.27-0.25-0.31-0.54-0.24l-3.97,0.94
				c-0.28,0.07-0.41,0.17-0.37,0.45l-0.09,0.02l-0.41-1.75C31.06,86.61,31.79,85.21,33.31,84.85z M33.43,85.34
				c-1.6,0.38-2.17,1.47-1.83,2.91l0.21,0.88L36.59,88l-0.21-0.88C36.04,85.67,35.03,84.96,33.43,85.34z"/>
		</g>
		<g class="st2">
			<path class="st3" d="M32.63,78.47c1.56-0.14,2.77,0.97,2.91,2.47c0.14,1.49-0.85,2.81-2.41,2.96c-1.55,0.14-2.77-0.97-2.91-2.46
				C30.08,79.94,31.08,78.62,32.63,78.47z M32.68,78.99c-1.59,0.15-2.43,1.29-2.32,2.44s1.14,2.11,2.73,1.96
				c1.6-0.15,2.44-1.29,2.33-2.44S34.28,78.84,32.68,78.99z"/>
		</g>
		<g id="STUDIO_AO_QUADRADO__STUDIO_AO_QUADRADO__STUDIO_AO_QUADRADO" class="st4">
			<path class="st3" d="M76.42,35.95c22.72,0,41.13,18.42,41.13,41.13s-18.42,41.13-41.13,41.13S35.29,99.8,35.29,77.08
				S76.42,35.95,76.42,35.95z"/>
			<path class="st3" d="M34.43,71.86c0.84,0.22,1.15,0.94,1.07,1.82c-0.06,0.56-0.3,1.34-0.67,1.77l-0.98-0.08l0.01-0.09
				c0.94-0.15,1.43-0.91,1.5-1.61c0.06-0.6-0.14-1.14-0.73-1.32c-1.53-0.44-1.64,3.02-3.57,2.47c-0.66-0.19-0.97-0.76-0.9-1.53
				c0.04-0.54,0.28-1.02,0.68-1.46l0.92,0.07l-0.01,0.08c-0.94,0.15-1.4,0.62-1.46,1.32c-0.04,0.51,0.19,1.01,0.74,1.12
				C32.48,74.71,32.81,71.42,34.43,71.86z"/>
			<path class="st3" d="M32.19,66.76l-0.02,0.09c-0.34,0.05-0.87,0.17-0.98,0.79l-0.15,0.82l4.42,0.81
				c0.29,0.05,0.45,0.01,0.52-0.26l0.09,0.02l-0.22,1.18l-0.09-0.02c0.03-0.27-0.1-0.37-0.4-0.43l-4.42-0.81l-0.15,0.82
				c-0.11,0.61,0.34,0.91,0.64,1.08l-0.02,0.09l-0.92-0.31l0.72-3.9L32.19,66.76z"/>
			<path class="st3" d="M32.9,60.99l0.09,0.03c-0.05,0.27,0.07,0.39,0.34,0.47l2.52,0.79c0.82,0.26,1.84,1.05,1.43,2.37
				c-0.38,1.2-1.38,1.82-2.62,1.44l-2.52-0.79c-0.28-0.09-0.44-0.06-0.55,0.19l-0.09-0.03l0.36-1.15l0.09,0.03
				c-0.06,0.28,0.06,0.39,0.34,0.48l2.52,0.79c1.13,0.35,2-0.04,2.31-1.02c0.38-1.23-0.54-1.93-1.31-2.17l-2.52-0.79
				c-0.28-0.09-0.44-0.06-0.55,0.19l-0.09-0.03L32.9,60.99z"/>
			<path class="st3" d="M37.7,56.59c1.43,0.66,1.86,2.17,1.15,3.7l-0.75,1.63l-0.08-0.04c0.1-0.27-0.01-0.4-0.27-0.52l-3.71-1.71
				c-0.26-0.12-0.43-0.12-0.57,0.13l-0.09-0.04l0.75-1.63C34.84,56.59,36.28,55.93,37.7,56.59z M37.49,57.05
				c-1.5-0.69-2.62-0.19-3.24,1.16l-0.38,0.82l4.47,2.06l0.38-0.82C39.34,58.92,38.99,57.74,37.49,57.05z"/>
			<path class="st3" d="M36.8,54.14l3.54,2.03c0.26,0.15,0.42,0.16,0.58-0.08L41,56.14l-0.6,1.04l-0.08-0.04
				c0.12-0.26,0.03-0.39-0.23-0.54l-3.54-2.03c-0.25-0.14-0.42-0.15-0.58,0.08L35.9,54.6l0.6-1.04l0.08,0.05
				C36.46,53.86,36.55,54,36.8,54.14z"/>
			<path class="st3" d="M42.27,49.63c1.28,0.9,1.47,2.54,0.6,3.77c-0.87,1.22-2.47,1.59-3.75,0.68c-1.27-0.9-1.47-2.54-0.61-3.77
				C39.38,49.09,40.99,48.73,42.27,49.63z M41.97,50.06c-1.31-0.93-2.68-0.6-3.35,0.34c-0.66,0.94-0.51,2.34,0.79,3.27
				c1.32,0.93,2.69,0.6,3.35-0.33C43.43,52.39,43.28,50.99,41.97,50.06z"/>
			<path class="st3" d="M49.05,46.15l0.06,0.06l-0.95,0.95L48.1,47.1c0.18-0.21,0.15-0.43-0.12-0.54l-1.22-0.49l-1.6,1.6l0.52,1.19
				c0.14,0.29,0.33,0.3,0.54,0.12l0.06,0.06l-0.69,0.69l-0.06-0.06c0.18-0.21,0.15-0.46,0.04-0.7l-1.75-3.92
				c-0.14-0.3-0.35-0.37-0.53-0.23l-0.07-0.07l0.46-0.46l4.65,1.91C48.59,46.31,48.84,46.33,49.05,46.15z M46.62,46.01l-2.69-1.11
				l-0.01,0.01l1.17,2.62L46.62,46.01z"/>
			<path class="st3" d="M51.9,40.76c0.96,1.24,0.66,2.86-0.53,3.78c-1.19,0.92-2.83,0.79-3.79-0.45c-0.95-1.23-0.66-2.86,0.53-3.78
				C49.3,39.39,50.95,39.53,51.9,40.76z M51.49,41.08c-0.98-1.27-2.39-1.36-3.3-0.66c-0.91,0.7-1.18,2.09-0.2,3.36
				c0.98,1.28,2.39,1.37,3.31,0.67C52.2,43.74,52.47,42.35,51.49,41.08z"/>
			<path class="st3" d="M60.71,39.5c0.1,0.99-1.19,1.46-3.16,1.12c-1.33,0.66-2.9,0.22-3.61-1.15c-0.72-1.38-0.14-2.94,1.2-3.63
				c1.33-0.69,2.93-0.26,3.65,1.12c0.69,1.33,0.19,2.82-1.03,3.54c0.77,0.01,2.41-0.08,2.87-1.03L60.71,39.5z M57.53,40.47
				c1.02-0.52,1.53-1.84,0.79-3.27c-0.74-1.42-2.11-1.77-3.12-1.24c-1.02,0.53-1.54,1.85-0.8,3.27C55.13,40.66,56.51,41,57.53,40.47
				z"/>
			<path class="st3" d="M63.22,32.6l0.03,0.08c-0.25,0.12-0.27,0.28-0.17,0.56l0.88,2.49c0.29,0.81,0.26,2.1-1.04,2.56
				c-1.19,0.42-2.29-0.01-2.72-1.23l-0.88-2.49c-0.1-0.27-0.22-0.39-0.48-0.32l-0.03-0.08l1.13-0.4l0.03,0.08
				c-0.26,0.12-0.28,0.29-0.18,0.56l0.88,2.49c0.4,1.12,1.23,1.58,2.2,1.24c1.21-0.43,1.22-1.59,0.96-2.35l-0.88-2.49
				c-0.1-0.27-0.22-0.39-0.48-0.32l-0.03-0.08L63.22,32.6z"/>
			<path class="st3" d="M69.92,36.29l0.02,0.09l-1.31,0.29l-0.02-0.09c0.26-0.08,0.36-0.28,0.19-0.52l-0.76-1.07l-2.21,0.49
				l-0.2,1.28c-0.04,0.32,0.12,0.43,0.39,0.39l0.02,0.09l-0.95,0.21l-0.02-0.09c0.27-0.08,0.37-0.3,0.41-0.57l0.63-4.24
				c0.05-0.33-0.09-0.5-0.32-0.47l-0.02-0.09l0.63-0.14l2.89,4.11C69.45,36.17,69.64,36.33,69.92,36.29z M67.95,34.86l-1.67-2.38
				l-0.01,0l-0.42,2.84L67.95,34.86z"/>
			<path class="st3" d="M74.88,33.31c0.14,1.57-0.96,2.69-2.63,2.84l-1.79,0.16l-0.01-0.09c0.28-0.05,0.34-0.2,0.31-0.5l-0.36-4.06
				c-0.03-0.29-0.11-0.43-0.4-0.43L70,31.14l1.79-0.16C73.46,30.83,74.74,31.75,74.88,33.31z M74.38,33.36
				c-0.15-1.64-1.14-2.36-2.62-2.23l-0.9,0.08l0.44,4.9l0.9-0.08C73.67,35.89,74.52,35,74.38,33.36z"/>
			<path class="st3" d="M79.9,35.94l0,0.09l-0.76-0.02l-1.5-2.3c-0.04,0.01-0.07,0.01-0.1,0l-0.9-0.03l-0.05,1.69
				c-0.01,0.29,0.06,0.44,0.33,0.48l0,0.09l-1.19-0.04l0-0.09c0.27-0.02,0.35-0.17,0.36-0.46l0.12-4.08
				c0.01-0.29-0.06-0.45-0.33-0.48l0-0.09l1.74,0.05c1.15,0.04,1.83,0.61,1.8,1.53c-0.02,0.75-0.5,1.24-1.3,1.38l1.19,1.79
				C79.48,35.72,79.67,35.88,79.9,35.94z M78.92,32.28c0.02-0.81-0.42-1.35-1.35-1.38l-0.85-0.03l-0.08,2.67l0.85,0.03
				C78.42,33.6,78.89,33.09,78.92,32.28z"/>
			<path class="st3" d="M85.04,36.68l-0.01,0.09l-1.33-0.2l0.01-0.09c0.27,0.02,0.43-0.14,0.36-0.42l-0.33-1.27l-2.24-0.34
				l-0.64,1.13c-0.16,0.29-0.04,0.44,0.22,0.51l-0.01,0.09l-0.96-0.14l0.01-0.09c0.28,0.02,0.46-0.15,0.59-0.38l2.11-3.74
				c0.16-0.29,0.09-0.5-0.13-0.56l0.01-0.1l0.64,0.1l1.23,4.87C84.64,36.41,84.77,36.62,85.04,36.68z M83.71,34.65L83,31.82l-0.01,0
				l-1.41,2.5L83.71,34.65z"/>
			<path class="st3" d="M90.74,35.68c-0.43,1.51-1.86,2.17-3.47,1.71l-1.73-0.49l0.02-0.09c0.28,0.06,0.39-0.07,0.47-0.35l1.12-3.92
				c0.08-0.28,0.05-0.44-0.22-0.54l0.03-0.09l1.73,0.49C90.3,32.85,91.17,34.17,90.74,35.68z M90.25,35.54
				c0.45-1.58-0.22-2.62-1.65-3.02l-0.87-0.25L86.39,37l0.87,0.25C88.69,37.66,89.8,37.13,90.25,35.54z"/>
			<path class="st3" d="M96.64,38.2c-0.63,1.43-2.2,1.95-3.58,1.33c-1.37-0.61-2.04-2.12-1.4-3.55c0.63-1.42,2.2-1.95,3.57-1.34
				C96.6,35.26,97.27,36.78,96.64,38.2z M96.16,37.99c0.65-1.46,0.06-2.75-0.99-3.22c-1.05-0.47-2.4-0.04-3.05,1.42
				c-0.65,1.47-0.06,2.76,0.99,3.22C94.16,39.88,95.51,39.46,96.16,37.99z"/>
			<path class="st3" d="M102.14,43.49c-0.62,0.61-1.4,0.52-2.11,0c-0.45-0.34-1-0.94-1.19-1.47l0.56-0.8l0.07,0.05
				c-0.35,0.89,0.06,1.69,0.63,2.11c0.48,0.36,1.05,0.46,1.5,0.04c1.15-1.1-1.78-2.94-0.32-4.33c0.5-0.48,1.15-0.45,1.77-0.01
				c0.44,0.31,0.74,0.76,0.92,1.33l-0.53,0.76l-0.07-0.05c0.35-0.89,0.18-1.52-0.4-1.93c-0.42-0.29-0.97-0.35-1.34,0.07
				C100.67,40.36,103.34,42.31,102.14,43.49z"/>
			<path class="st3" d="M107.67,44.13l-0.07-0.06c0.13-0.32,0.29-0.84-0.18-1.24l-0.63-0.55l-2.94,3.4
				c-0.19,0.22-0.24,0.38-0.04,0.58l-0.06,0.07l-0.9-0.78l0.06-0.07c0.22,0.16,0.38,0.1,0.57-0.12l2.94-3.4l-0.63-0.55
				c-0.47-0.41-0.96-0.17-1.26,0l-0.07-0.06l0.74-0.64l3,2.6L107.67,44.13z"/>
			<path class="st3" d="M112.28,47.66l-0.07,0.06c-0.21-0.18-0.37-0.14-0.58,0.06l-1.95,1.78c-0.64,0.58-1.84,1.06-2.76,0.04
				c-0.85-0.93-0.88-2.11,0.08-2.98l1.95-1.78c0.21-0.2,0.27-0.35,0.11-0.57l0.07-0.06l0.81,0.89l-0.07,0.06
				c-0.21-0.19-0.37-0.14-0.58,0.05l-1.95,1.78c-0.88,0.8-0.98,1.75-0.29,2.51c0.86,0.95,1.94,0.51,2.54-0.03l1.95-1.78
				c0.21-0.2,0.27-0.35,0.11-0.57l0.07-0.06L112.28,47.66z"/>
			<path class="st3" d="M113.66,54.02c-1.29,0.9-2.81,0.51-3.77-0.87l-1.03-1.47l0.07-0.05c0.18,0.22,0.34,0.19,0.59,0.02l3.34-2.34
				c0.24-0.17,0.32-0.31,0.17-0.56l0.08-0.06l1.03,1.47C115.1,51.56,114.94,53.12,113.66,54.02z M113.37,53.61
				c1.35-0.94,1.48-2.17,0.63-3.38l-0.52-0.74l-4.03,2.82l0.52,0.74C110.82,54.26,112.02,54.55,113.37,53.61z"/>
			<path class="st3" d="M116.22,54.47l-3.54,2.04c-0.26,0.15-0.35,0.29-0.23,0.54l-0.08,0.04l-0.6-1.04l0.08-0.04
				c0.16,0.23,0.33,0.22,0.58,0.07l3.54-2.04c0.25-0.14,0.34-0.28,0.22-0.54l0.08-0.05l0.6,1.04l-0.08,0.05
				C116.64,54.32,116.48,54.33,116.22,54.47z"/>
			<path class="st3" d="M117.37,61.47c-1.43,0.65-2.94-0.01-3.56-1.38c-0.62-1.36-0.12-2.94,1.3-3.59c1.42-0.65,2.94,0.01,3.56,1.37
				C119.29,59.25,118.79,60.82,117.37,61.47z M117.15,61c1.46-0.66,1.87-2.02,1.39-3.06c-0.48-1.05-1.77-1.63-3.23-0.96
				c-1.46,0.67-1.88,2.02-1.4,3.07C114.4,61.08,115.69,61.66,117.15,61z"/>
			<path class="st3" d="M116.94,69.09l-0.09,0.02l-0.34-1.3l0.09-0.02c0.09,0.26,0.3,0.35,0.53,0.17l1.04-0.8l-0.57-2.19l-1.29-0.15
				c-0.32-0.03-0.42,0.13-0.38,0.4l-0.09,0.02l-0.24-0.94l0.09-0.02c0.09,0.27,0.32,0.36,0.58,0.39l4.26,0.47
				c0.33,0.04,0.49-0.11,0.46-0.34l0.09-0.02l0.16,0.62l-4,3.04C117.04,68.61,116.89,68.81,116.94,69.09z M118.3,67.07l2.32-1.76
				l0-0.01l-2.86-0.32L118.3,67.07z"/>
			<path class="st3" d="M120.14,74.28c-1.55,0.2-2.8-0.88-2.99-2.38c-0.19-1.49,0.76-2.84,2.31-3.04c1.55-0.19,2.8,0.88,2.99,2.37
				C122.64,72.73,121.69,74.08,120.14,74.28z M120.08,73.76c1.59-0.2,2.39-1.37,2.24-2.51c-0.14-1.14-1.2-2.08-2.79-1.88
				c-1.6,0.2-2.39,1.37-2.25,2.51C117.42,73.03,118.48,73.96,120.08,73.76z"/>
			<path class="st3" d="M116.78,82.51c-0.91-0.42-0.66-1.76,0.63-3.3c0.11-1.48,1.27-2.62,2.82-2.53c1.56,0.08,2.6,1.36,2.52,2.87
				c-0.08,1.5-1.25,2.66-2.81,2.58c-1.5-0.08-2.53-1.26-2.53-2.68c-0.4,0.66-1.15,2.12-0.56,3L116.78,82.51z M117.54,79.27
				c-0.06,1.14,0.82,2.25,2.43,2.33c1.6,0.08,2.59-0.93,2.65-2.07c0.06-1.15-0.82-2.26-2.42-2.34
				C118.59,77.11,117.61,78.12,117.54,79.27z"/>
			<path class="st3" d="M121.47,88.15l-0.09-0.02c0.02-0.27-0.11-0.38-0.39-0.43l-2.59-0.5c-0.84-0.16-1.95-0.83-1.69-2.19
				c0.24-1.24,1.16-1.97,2.44-1.72l2.59,0.5c0.28,0.05,0.44,0.01,0.52-0.25l0.09,0.02l-0.23,1.18l-0.09-0.02
				c0.02-0.28-0.11-0.38-0.39-0.44l-2.59-0.5c-1.17-0.22-1.98,0.26-2.18,1.28c-0.24,1.26,0.76,1.86,1.55,2.01l2.59,0.5
				c0.28,0.05,0.44,0.01,0.52-0.26l0.09,0.02L121.47,88.15z"/>
			<path class="st3" d="M114.9,92.08l-0.09-0.03l0.41-1.28l0.09,0.03c-0.06,0.27,0.07,0.45,0.35,0.43l1.31-0.12l0.69-2.15
				l-1.01-0.82c-0.26-0.2-0.43-0.11-0.54,0.14l-0.09-0.03l0.3-0.93l0.09,0.03c-0.06,0.27,0.07,0.48,0.28,0.65l3.35,2.68
				c0.26,0.21,0.48,0.17,0.57-0.04l0.09,0.03l-0.2,0.61l-5.01,0.42C115.24,91.73,115.01,91.82,114.9,92.08z M117.13,91.1l2.9-0.24
				l0-0.01l-2.24-1.8L117.13,91.1z"/>
			<path class="st3" d="M114.97,97.87c-1.42-0.67-1.84-2.19-1.13-3.7l0.77-1.63l0.08,0.04c-0.1,0.26,0,0.4,0.27,0.52l3.69,1.74
				c0.26,0.12,0.43,0.12,0.57-0.13l0.09,0.04l-0.77,1.63C117.83,97.89,116.39,98.54,114.97,97.87z M115.19,97.41
				c1.49,0.7,2.62,0.21,3.25-1.14l0.38-0.82l-4.45-2.1l-0.38,0.82C113.35,95.52,113.7,96.71,115.19,97.41z"/>
			<path class="st3" d="M110.16,100.86l-0.07-0.05l0.41-0.65l2.74-0.12c0.01-0.04,0.03-0.06,0.05-0.09l0.48-0.76l-1.43-0.9
				c-0.25-0.15-0.41-0.17-0.58,0.05l-0.07-0.05l0.64-1.01l0.07,0.05c-0.12,0.25-0.04,0.39,0.21,0.54l3.45,2.17
				c0.25,0.15,0.42,0.17,0.58-0.05l0.07,0.05l-0.93,1.48c-0.61,0.97-1.45,1.27-2.23,0.78c-0.63-0.4-0.82-1.06-0.53-1.82l-2.15,0.12
				C110.57,100.62,110.33,100.71,110.16,100.86z M113.82,101.88c0.68,0.43,1.38,0.32,1.87-0.46l0.45-0.72l-2.26-1.42l-0.45,0.72
				C112.93,100.78,113.13,101.45,113.82,101.88z"/>
			<path class="st3" d="M106.91,104.93l-0.07-0.06l0.84-1.04l0.07,0.06c-0.16,0.23-0.1,0.44,0.18,0.52l1.26,0.36l1.42-1.76
				l-0.65-1.12c-0.17-0.28-0.36-0.26-0.55-0.06l-0.07-0.06l0.61-0.76l0.07,0.06c-0.16,0.23-0.1,0.47,0.03,0.7l2.15,3.71
				c0.17,0.29,0.38,0.33,0.55,0.17l0.07,0.06l-0.41,0.5l-4.82-1.41C107.36,104.72,107.11,104.72,106.91,104.93z M109.34,104.81
				l2.79,0.82l0-0.01l-1.44-2.49L109.34,104.81z"/>
			<path class="st3" d="M104.9,110.35c-1.09-1.14-0.93-2.7,0.28-3.86l1.3-1.24l0.06,0.06c-0.19,0.21-0.14,0.37,0.07,0.58l2.82,2.95
				c0.2,0.21,0.36,0.26,0.58,0.09l0.07,0.07l-1.3,1.24C107.56,111.4,105.98,111.48,104.9,110.35z M105.26,110
				c1.14,1.19,2.37,1.13,3.44,0.11l0.65-0.63l-3.4-3.56l-0.65,0.63C104.23,107.58,104.12,108.81,105.26,110z"/>
			<path class="st3" d="M99.75,114.17c-0.92-1.27-0.57-2.88,0.65-3.76c1.22-0.88,2.86-0.69,3.77,0.57c0.91,1.26,0.57,2.88-0.65,3.76
				C102.3,115.62,100.66,115.43,99.75,114.17z M100.17,113.87c0.94,1.3,2.34,1.44,3.28,0.77c0.93-0.67,1.25-2.05,0.31-3.35
				c-0.94-1.31-2.35-1.44-3.28-0.77C99.54,111.18,99.23,112.56,100.17,113.87z"/>
			<path class="st3" d="M92.42,116.25c-0.21-0.84,0.26-1.46,1.07-1.82c0.52-0.22,1.32-0.39,1.87-0.29l0.41,0.89l-0.08,0.04
				c-0.59-0.75-1.49-0.8-2.14-0.52c-0.55,0.24-0.93,0.68-0.79,1.28c0.37,1.55,3.44-0.05,3.9,1.91c0.16,0.67-0.19,1.22-0.89,1.53
				c-0.49,0.23-1.02,0.26-1.61,0.12l-0.39-0.84l0.07-0.03c0.6,0.75,1.22,0.92,1.86,0.63c0.47-0.21,0.79-0.66,0.61-1.19
				C95.86,116.57,92.83,117.88,92.42,116.25z"/>
			<path class="st3" d="M89.06,120.71l0.08-0.03c0.21,0.27,0.57,0.67,1.17,0.47l0.79-0.27l-1.45-4.26c-0.1-0.28-0.21-0.4-0.48-0.33
				l-0.03-0.08l1.13-0.39l0.03,0.08c-0.25,0.11-0.27,0.27-0.18,0.56l1.45,4.26l0.79-0.27c0.59-0.2,0.63-0.74,0.63-1.09l0.08-0.03
				l0.18,0.96l-3.76,1.28L89.06,120.71z"/>
			<path class="st3" d="M83.68,122.9l-0.02-0.09c0.26-0.09,0.3-0.25,0.25-0.53l-0.55-2.58c-0.18-0.84,0.02-2.12,1.37-2.4
				c1.23-0.26,2.27,0.31,2.53,1.58l0.55,2.58c0.06,0.28,0.16,0.41,0.44,0.38l0.02,0.09l-1.18,0.25l-0.02-0.09
				c0.27-0.09,0.31-0.25,0.25-0.53l-0.54-2.58c-0.25-1.16-1.01-1.73-2.02-1.52c-1.26,0.26-1.42,1.41-1.26,2.21l0.54,2.58
				c0.06,0.28,0.16,0.41,0.44,0.38l0.02,0.09L83.68,122.9z"/>
			<path class="st3" d="M77.49,120.86c-0.12-1.57,0.99-2.68,2.66-2.81l1.79-0.14l0.01,0.09c-0.28,0.04-0.34,0.2-0.32,0.49l0.32,4.07
				c0.02,0.29,0.11,0.43,0.39,0.43l0.01,0.1l-1.79,0.14C78.89,123.36,77.62,122.42,77.49,120.86z M78,120.82
				c0.13,1.64,1.12,2.38,2.6,2.26l0.9-0.07l-0.39-4.9l-0.9,0.07C78.73,118.29,77.87,119.18,78,120.82z"/>
			<path class="st3" d="M75.77,122.84l0.07-4.08c0-0.3-0.07-0.45-0.35-0.47l0-0.09l1.2,0.02l0,0.09c-0.28,0.02-0.36,0.16-0.36,0.46
				l-0.07,4.08c0,0.29,0.07,0.44,0.35,0.47l0,0.1l-1.2-0.02l0-0.1C75.69,123.28,75.76,123.13,75.77,122.84z"/>
			<path class="st3" d="M69.2,120.3c0.16-1.56,1.49-2.53,2.99-2.38c1.49,0.15,2.6,1.38,2.44,2.93c-0.16,1.55-1.49,2.53-2.98,2.38
				C70.14,123.08,69.04,121.85,69.2,120.3z M69.72,120.35c-0.16,1.59,0.8,2.63,1.94,2.75c1.14,0.12,2.3-0.71,2.46-2.3
				c0.16-1.6-0.8-2.64-1.94-2.76C71.03,117.93,69.88,118.75,69.72,120.35z"/>
			<path class="st3" d="M62.83,116.09l0.02-0.09l1.29,0.36l-0.02,0.09c-0.27-0.05-0.45,0.08-0.41,0.37l0.16,1.3l2.18,0.61l0.78-1.04
				c0.19-0.26,0.1-0.43-0.16-0.53l0.02-0.09l0.94,0.26l-0.02,0.09c-0.28-0.05-0.47,0.09-0.63,0.31l-2.56,3.44
				c-0.2,0.27-0.15,0.48,0.06,0.57l-0.03,0.09l-0.62-0.17l-0.61-4.99C63.19,116.41,63.1,116.19,62.83,116.09z M63.9,118.28
				l0.35,2.89l0.01,0l1.71-2.31L63.9,118.28z"/>
			<path class="st3" d="M56.74,116.23c0.62-1.44,2.18-1.97,3.56-1.38c1.38,0.59,2.07,2.09,1.45,3.53c-0.61,1.43-2.18,1.97-3.55,1.39
				C56.82,119.17,56.13,117.67,56.74,116.23z M57.22,116.44c-0.63,1.47-0.02,2.75,1.04,3.2c1.06,0.45,2.4,0.01,3.03-1.46
				c0.63-1.48,0.02-2.76-1.03-3.21C59.19,114.52,57.85,114.96,57.22,116.44z"/>
			<path class="st3" d="M51.34,109.17c0.82-0.57,1.85,0.32,2.52,2.22c1.22,0.84,1.61,2.42,0.76,3.71c-0.86,1.3-2.49,1.55-3.75,0.72
				c-1.25-0.83-1.66-2.43-0.8-3.73c0.83-1.25,2.37-1.54,3.6-0.83c-0.36-0.68-1.24-2.06-2.31-2L51.34,109.17z M53.74,111.46
				c-0.95-0.63-2.35-0.43-3.24,0.91c-0.88,1.34-0.51,2.7,0.44,3.33c0.96,0.63,2.36,0.44,3.24-0.9
				C55.07,113.46,54.7,112.1,53.74,111.46z"/>
			<path class="st3" d="M44.1,110.35l0.06-0.07c0.23,0.16,0.38,0.1,0.57-0.12l1.74-1.98c0.57-0.65,1.7-1.26,2.74-0.35
				c0.95,0.83,1.11,2,0.25,2.98l-1.74,1.99c-0.19,0.22-0.23,0.38-0.05,0.58l-0.06,0.07l-0.9-0.79l0.06-0.07
				c0.23,0.16,0.38,0.1,0.58-0.12l1.74-1.99c0.78-0.89,0.78-1.84,0-2.52c-0.97-0.85-1.98-0.29-2.52,0.32l-1.74,1.98
				c-0.19,0.22-0.23,0.38-0.05,0.58l-0.06,0.07L44.1,110.35z"/>
			<path class="st3" d="M44.03,102.7l0.07-0.06l0.9,1l-0.07,0.06c-0.2-0.19-0.42-0.17-0.55,0.09l-0.56,1.19l1.51,1.69l1.21-0.46
				c0.3-0.12,0.32-0.31,0.15-0.53l0.07-0.06l0.65,0.72l-0.07,0.06c-0.2-0.2-0.45-0.18-0.7-0.08l-4.01,1.53
				c-0.31,0.12-0.39,0.32-0.25,0.52l-0.07,0.06l-0.43-0.48l2.17-4.54C44.16,103.17,44.2,102.93,44.03,102.7z M43.75,105.12
				l-1.25,2.63l0,0.01l2.68-1.03L43.75,105.12z"/>
			<path class="st3" d="M39,99.84c1.3-0.89,2.82-0.49,3.77,0.89l1.02,1.48l-0.07,0.05c-0.18-0.22-0.34-0.2-0.59-0.03l-3.36,2.31
				c-0.24,0.16-0.32,0.31-0.18,0.55l-0.08,0.05l-1.02-1.48C37.54,102.3,37.71,100.73,39,99.84z M39.28,100.26
				c-1.36,0.93-1.5,2.16-0.66,3.38l0.51,0.75l4.05-2.79l-0.51-0.75C41.84,99.63,40.64,99.33,39.28,100.26z"/>
			<path class="st3" d="M38.84,94.18l0.08-0.04l0.35,0.68L38,97.25c0.02,0.03,0.04,0.06,0.05,0.09l0.42,0.8l1.5-0.78
				c0.26-0.13,0.35-0.27,0.25-0.53l0.08-0.04l0.55,1.06l-0.08,0.04c-0.15-0.23-0.32-0.23-0.58-0.09l-3.62,1.89
				c-0.26,0.13-0.36,0.27-0.25,0.53l-0.08,0.04l-0.81-1.55c-0.53-1.02-0.36-1.9,0.45-2.32c0.66-0.35,1.33-0.17,1.84,0.46l0.98-1.92
				C38.84,94.66,38.89,94.41,38.84,94.18z M36.12,96.83c-0.72,0.37-0.97,1.03-0.54,1.85l0.4,0.76l2.37-1.24l-0.4-0.76
				C37.51,96.62,36.84,96.46,36.12,96.83z"/>
			<path class="st3" d="M36.97,89.33l0.08-0.03l0.47,1.26l-0.08,0.03c-0.12-0.25-0.33-0.31-0.54-0.11l-0.95,0.91l0.8,2.12l1.3,0.01
				c0.32,0,0.41-0.18,0.33-0.44l0.08-0.03l0.34,0.91l-0.08,0.03c-0.12-0.26-0.35-0.33-0.62-0.33l-4.29-0.01
				c-0.33,0-0.48,0.16-0.42,0.39l-0.09,0.03l-0.23-0.6L36.72,90C36.92,89.81,37.05,89.6,36.97,89.33z M35.84,91.48l-2.12,2l0,0.01
				l2.87,0.01L35.84,91.48z"/>
			<path class="st3" d="M33.31,84.84c1.53-0.36,2.8,0.56,3.19,2.2l0.41,1.75l-0.09,0.02c-0.09-0.27-0.25-0.31-0.54-0.24l-3.97,0.94
				c-0.28,0.07-0.41,0.17-0.37,0.45l-0.09,0.02l-0.41-1.75C31.06,86.6,31.78,85.2,33.31,84.84z M33.43,85.34
				c-1.6,0.38-2.18,1.47-1.84,2.91l0.21,0.88L36.59,88l-0.21-0.88C36.04,85.67,35.03,84.95,33.43,85.34z"/>
			<path class="st3" d="M32.63,78.47c1.56-0.15,2.77,0.97,2.91,2.47c0.14,1.49-0.85,2.81-2.41,2.96c-1.55,0.14-2.77-0.97-2.91-2.46
				C30.08,79.93,31.08,78.61,32.63,78.47z M32.67,78.98c-1.6,0.15-2.43,1.29-2.32,2.44c0.11,1.14,1.14,2.11,2.73,1.97
				c1.6-0.15,2.44-1.29,2.33-2.44C35.31,79.8,34.28,78.83,32.67,78.98z"/>
		</g>
	</g>
	<g id="A_1_">
		<g>
			<path class="st3" d="M152.88,129.41v2.26h-34.05v-2.26c6.96-0.56,10.35-5.08,7.52-11.85L113.38,86.9H56.01l-11.85,30.66
				c-2.82,7.71,0.56,11.29,7.52,11.85v2.26H27.04v-2.26c7.15-0.56,10.91-5.46,13.36-11.85L79.15,15.99
				c3.01-7.9,0.38-12.79-5.46-13.54V0h16.36l49.09,117.56C141.78,123.96,145.73,128.85,152.88,129.41z M111.87,83.33l-28.4-68.09
				h-0.19L57.33,83.33H111.87z"/>
		</g>
	</g>
	<g id="A">
		<g>
			<path class="st3" d="M13.73,117.56L62.83,0h16.36v2.44c-5.83,0.75-8.46,5.64-5.46,13.54l38.75,101.58
				c2.44,6.4,6.21,11.29,13.36,11.85v2.26H101.2v-2.26c6.96-0.56,10.35-4.14,7.52-11.85L96.87,86.9H39.5l-12.98,30.66
				c-2.82,6.77,0.56,11.29,7.52,11.85v2.26H0v-2.26C7.15,128.85,11.1,123.96,13.73,117.56z M95.56,83.33L69.6,15.24h-0.19
				l-28.4,68.09H95.56z"/>
		</g>
	</g>
</g>
<g>
</g>
<g>
</g>
<g>
</g>
<g>
</g>
<g>
</g>
<g>
</g>
</svg>
