<?xml version="1.0" encoding="utf-8"?>
<!-- Generator: Adobe Illustrator 25.2.1, SVG Export Plug-In . SVG Version: 6.00 Build 0)  -->
<svg version="1.1" id="Camada_1" xmlns="http://www.w3.org/2000/svg" xmlns:xlink="http://www.w3.org/1999/xlink" x="0px" y="0px"
	 viewBox="0 0 152.9 131.7" style="enable-background:new 0 0 152.9 131.7;" xml:space="preserve">
<style type="text/css">
	.st0{display:none;}
	.st1{display:inline;fill:#010202;}
	.st2{display:inline;enable-background:new    ;}
	.st3{fill:#010202;}
	.st4{display:inline;}
</style>
<g id="Agrupar_4_1_">
	<g id="STUDIO_AO_QUADRADO__STUDIO_AO_QUADRADO__STUDIO_AO_QUADRADO_1_" class="st0">
		<path class="st1" d="M76.4,36c22.7,0,41.1,18.4,41.1,41.1s-18.4,41.1-41.1,41.1S35.3,99.8,35.3,77.1S76.4,36,76.4,36z"/>
		<g class="st2">
			<path class="st3" d="M34.4,71.9c0.8,0.2,1.2,0.9,1.1,1.8c-0.1,0.6-0.3,1.3-0.7,1.8l-1-0.1l0-0.1c0.9-0.2,1.4-0.9,1.5-1.6
				c0.1-0.6-0.1-1.1-0.7-1.3c-1.5-0.4-1.6,3-3.6,2.5c-0.7-0.2-1-0.8-0.9-1.5c0-0.5,0.3-1,0.7-1.5l0.9,0.1l0,0.1
				c-0.9,0.2-1.4,0.6-1.5,1.3c0,0.5,0.2,1,0.7,1.1C32.5,74.7,32.8,71.4,34.4,71.9z"/>
		</g>
		<g class="st2">
			<path class="st3" d="M32.2,66.8L32.2,66.8c-0.4,0.1-0.9,0.3-1,0.9L31,68.5l4.4,0.8c0.3,0.1,0.5,0,0.5-0.3l0.1,0l-0.2,1.2l-0.1,0
				c0-0.3-0.1-0.4-0.4-0.4l-4.4-0.8l-0.1,0.8c-0.1,0.6,0.3,0.9,0.6,1.1l0,0.1l-0.9-0.3l0.7-3.9L32.2,66.8z"/>
		</g>
		<g class="st2">
			<path class="st3" d="M32.9,61L32.9,61c0,0.3,0.2,0.4,0.4,0.5l2.5,0.8c0.8,0.3,1.8,1,1.4,2.4c-0.4,1.2-1.4,1.8-2.6,1.4l-2.5-0.8
				c-0.3-0.1-0.4-0.1-0.5,0.2l-0.1,0l0.4-1.2l0.1,0c-0.1,0.3,0.1,0.4,0.3,0.5l2.5,0.8c1.1,0.3,2,0,2.3-1c0.4-1.2-0.5-1.9-1.3-2.2
				l-2.5-0.8c-0.3-0.1-0.4-0.1-0.5,0.2l-0.1,0L32.9,61z"/>
		</g>
		<g class="st2">
			<path class="st3" d="M37.7,56.6c1.4,0.7,1.9,2.2,1.2,3.7l-0.8,1.6l-0.1,0c0.1-0.3,0-0.4-0.3-0.5L34,59.6
				c-0.3-0.1-0.4-0.1-0.6,0.1l-0.1,0l0.8-1.6C34.8,56.6,36.3,55.9,37.7,56.6z M37.5,57c-1.5-0.7-2.6-0.2-3.2,1.2L33.9,59l4.5,2.1
				l0.4-0.8C39.3,58.9,39,57.7,37.5,57z"/>
		</g>
		<g class="st2">
			<path class="st3" d="M36.8,54.2l3.5,2c0.3,0.2,0.4,0.2,0.6-0.1l0.1,0l-0.6,1l-0.1,0c0.1-0.3,0-0.4-0.2-0.5l-3.5-2
				c-0.2-0.1-0.4-0.2-0.6,0.1l-0.1-0.1l0.6-1l0.1,0C36.5,53.9,36.5,54,36.8,54.2z"/>
		</g>
		<g class="st2">
			<path class="st3" d="M42.3,49.6c1.3,0.9,1.5,2.5,0.6,3.8c-0.9,1.2-2.5,1.6-3.8,0.7c-1.3-0.9-1.5-2.5-0.6-3.8
				C39.4,49.1,41,48.7,42.3,49.6z M42,50.1c-1.3-0.9-2.7-0.6-3.3,0.3c-0.7,0.9-0.5,2.3,0.8,3.3c1.3,0.9,2.7,0.6,3.3-0.3
				C43.4,52.4,43.3,51,42,50.1z"/>
		</g>
		<g class="st2">
			<path class="st3" d="M49,46.2L49,46.2l-0.9,1l-0.1-0.1c0.2-0.2,0.2-0.4-0.1-0.5l-1.2-0.5l-1.6,1.6l0.5,1.2
				c0.1,0.3,0.3,0.3,0.5,0.1l0.1,0.1l-0.7,0.7l-0.1-0.1c0.2-0.2,0.2-0.5,0-0.7l-1.8-3.9c-0.1-0.3-0.3-0.4-0.5-0.2l-0.1-0.1l0.5-0.5
				l4.6,1.9C48.6,46.3,48.8,46.3,49,46.2z M46.6,46l-2.7-1.1l0,0l1.2,2.6L46.6,46z"/>
		</g>
		<g class="st2">
			<path class="st3" d="M51.9,40.8c1,1.2,0.7,2.9-0.5,3.8c-1.2,0.9-2.8,0.8-3.8-0.5c-1-1.2-0.7-2.9,0.5-3.8
				C49.3,39.4,51,39.5,51.9,40.8z M51.5,41.1c-1-1.3-2.4-1.4-3.3-0.7S47,42.5,48,43.8s2.4,1.4,3.3,0.7
				C52.2,43.7,52.5,42.3,51.5,41.1z"/>
		</g>
		<g class="st2">
			<path class="st3" d="M60.7,39.5c0.1,1-1.2,1.5-3.2,1.1c-1.3,0.7-2.9,0.2-3.6-1.2c-0.7-1.4-0.1-2.9,1.2-3.6
				c1.3-0.7,2.9-0.3,3.6,1.1c0.7,1.3,0.2,2.8-1,3.5C58.5,40.5,60.2,40.4,60.7,39.5L60.7,39.5z M57.5,40.5c1-0.5,1.5-1.8,0.8-3.3
				c-0.7-1.4-2.1-1.8-3.1-1.2c-1,0.5-1.5,1.8-0.8,3.3S56.5,41,57.5,40.5z"/>
		</g>
		<g class="st2">
			<path class="st3" d="M63.2,32.6L63.2,32.6C63,32.8,63,33,63.1,33.2l0.9,2.5c0.3,0.8,0.3,2.1-1,2.6c-1.2,0.4-2.3,0-2.7-1.2
				l-0.9-2.5c-0.1-0.3-0.2-0.4-0.5-0.3l0-0.1l1.1-0.4l0,0.1c-0.3,0.1-0.3,0.3-0.2,0.6l0.9,2.5c0.4,1.1,1.2,1.6,2.2,1.2
				c1.2-0.4,1.2-1.6,1-2.3l-0.9-2.5c-0.1-0.3-0.2-0.4-0.5-0.3l0-0.1L63.2,32.6z"/>
		</g>
		<g class="st2">
			<path class="st3" d="M69.9,36.3L69.9,36.3l-1.3,0.4l0-0.1c0.3-0.1,0.4-0.3,0.2-0.5L68,35l-2.2,0.5l-0.2,1.3
				c0,0.3,0.1,0.4,0.4,0.4l0,0.1l-0.9,0.2l0-0.1c0.3-0.1,0.4-0.3,0.4-0.6l0.6-4.2c0.1-0.3-0.1-0.5-0.3-0.5l0-0.1l0.6-0.1l2.9,4.1
				C69.4,36.2,69.6,36.3,69.9,36.3z M67.9,34.9l-1.7-2.4h0l-0.4,2.8L67.9,34.9z"/>
		</g>
		<g class="st2">
			<path class="st3" d="M74.9,33.3c0.1,1.6-1,2.7-2.6,2.8l-1.8,0.2l0-0.1c0.3,0,0.3-0.2,0.3-0.5l-0.4-4.1c0-0.3-0.1-0.4-0.4-0.4
				l0-0.1l1.8-0.2C73.5,30.8,74.7,31.8,74.9,33.3z M74.4,33.4c-0.2-1.6-1.1-2.4-2.6-2.2l-0.9,0.1l0.4,4.9l0.9-0.1
				C73.7,35.9,74.5,35,74.4,33.4z"/>
		</g>
		<g class="st2">
			<path class="st3" d="M79.9,36L79.9,36L79.1,36l-1.5-2.3c0,0-0.1,0-0.1,0l-0.9,0l-0.1,1.7c0,0.3,0.1,0.4,0.3,0.5V36l-1.2,0v-0.1
				c0.3,0,0.3-0.2,0.4-0.5l0.1-4.1c0-0.3-0.1-0.5-0.3-0.5v-0.1l1.7,0c1.2,0,1.8,0.6,1.8,1.5c0,0.8-0.5,1.2-1.3,1.4l1.2,1.8
				C79.5,35.7,79.7,35.9,79.9,36z M78.9,32.3c0-0.8-0.4-1.4-1.3-1.4l-0.8,0l-0.1,2.7l0.8,0C78.4,33.6,78.9,33.1,78.9,32.3z"/>
		</g>
		<g class="st2">
			<path class="st3" d="M85,36.7L85,36.7l-1.3-0.1l0-0.1c0.3,0,0.4-0.1,0.4-0.4l-0.3-1.3l-2.2-0.3l-0.6,1.1c-0.2,0.3,0,0.4,0.2,0.5
				l0,0.1l-1-0.1l0-0.1c0.3,0,0.5-0.2,0.6-0.4l2.1-3.7c0.2-0.3,0.1-0.5-0.1-0.6l0-0.1l0.6,0.1l1.2,4.9C84.6,36.4,84.8,36.6,85,36.7z
				 M83.7,34.7L83,31.8h0l-1.4,2.5L83.7,34.7z"/>
		</g>
		<g class="st2">
			<path class="st3" d="M90.7,35.7c-0.4,1.5-1.9,2.2-3.5,1.7l-1.7-0.5l0-0.1c0.3,0.1,0.4-0.1,0.5-0.3l1.1-3.9
				c0.1-0.3,0.1-0.4-0.2-0.5l0-0.1l1.7,0.5C90.3,32.9,91.2,34.2,90.7,35.7z M90.2,35.5c0.4-1.6-0.2-2.6-1.6-3l-0.9-0.2L86.4,37
				l0.9,0.2C88.7,37.7,89.8,37.1,90.2,35.5z"/>
		</g>
		<g class="st2">
			<path class="st3" d="M96.6,38.2c-0.6,1.4-2.2,1.9-3.6,1.3c-1.4-0.6-2-2.1-1.4-3.5c0.6-1.4,2.2-1.9,3.6-1.3
				C96.6,35.3,97.3,36.8,96.6,38.2z M96.2,38c0.7-1.5,0.1-2.8-1-3.2c-1.1-0.5-2.4,0-3.1,1.4c-0.7,1.5-0.1,2.8,1,3.2
				C94.2,39.9,95.5,39.5,96.2,38z"/>
		</g>
		<g class="st2">
			<path class="st3" d="M102.1,43.5c-0.6,0.6-1.4,0.5-2.1,0c-0.4-0.3-1-0.9-1.2-1.5l0.6-0.8l0.1,0c-0.3,0.9,0.1,1.7,0.6,2.1
				c0.5,0.4,1.1,0.5,1.5,0c1.2-1.1-1.8-2.9-0.3-4.3c0.5-0.5,1.2-0.4,1.8,0c0.4,0.3,0.7,0.8,0.9,1.3l-0.5,0.8l-0.1,0
				c0.3-0.9,0.2-1.5-0.4-1.9c-0.4-0.3-1-0.3-1.3,0.1C100.7,40.4,103.3,42.3,102.1,43.5z"/>
		</g>
		<g class="st2">
			<path class="st3" d="M107.7,44.1L107.7,44.1c0.1-0.4,0.2-0.9-0.2-1.3l-0.6-0.5l-2.9,3.4c-0.2,0.2-0.2,0.4,0,0.6l-0.1,0.1
				l-0.9-0.8l0.1-0.1c0.2,0.2,0.4,0.1,0.6-0.1l2.9-3.4l-0.6-0.5c-0.5-0.4-1-0.2-1.3,0l-0.1-0.1l0.7-0.6l3,2.6L107.7,44.1z"/>
		</g>
		<g class="st2">
			<path class="st3" d="M112.3,47.7L112.3,47.7c-0.3-0.1-0.4-0.1-0.7,0.1l-1.9,1.8c-0.6,0.6-1.8,1.1-2.8,0c-0.8-0.9-0.9-2.1,0.1-3
				l1.9-1.8c0.2-0.2,0.3-0.3,0.1-0.6l0.1-0.1l0.8,0.9l-0.1,0.1c-0.2-0.2-0.4-0.1-0.6,0l-1.9,1.8c-0.9,0.8-1,1.7-0.3,2.5
				c0.9,1,1.9,0.5,2.5,0l1.9-1.8c0.2-0.2,0.3-0.3,0.1-0.6l0.1-0.1L112.3,47.7z"/>
		</g>
		<g class="st2">
			<path class="st3" d="M113.7,54c-1.3,0.9-2.8,0.5-3.8-0.9l-1-1.5l0.1,0c0.2,0.2,0.3,0.2,0.6,0l3.3-2.3c0.2-0.2,0.3-0.3,0.2-0.6
				l0.1-0.1l1,1.5C115.1,51.6,114.9,53.1,113.7,54z M113.4,53.6c1.3-0.9,1.5-2.2,0.6-3.4l-0.5-0.7l-4,2.8L110,53
				C110.8,54.3,112,54.5,113.4,53.6z"/>
		</g>
		<g class="st2">
			<path class="st3" d="M116.2,54.5l-3.5,2c-0.3,0.2-0.3,0.3-0.2,0.5l-0.1,0l-0.6-1l0.1,0c0.2,0.2,0.3,0.2,0.6,0.1l3.5-2
				c0.2-0.1,0.3-0.3,0.2-0.5l0.1,0l0.6,1l-0.1,0C116.6,54.3,116.5,54.3,116.2,54.5z"/>
		</g>
		<g class="st2">
			<path class="st3" d="M117.4,61.5c-1.4,0.7-2.9,0-3.6-1.4c-0.6-1.4-0.1-2.9,1.3-3.6c1.4-0.7,2.9,0,3.6,1.4
				C119.3,59.2,118.8,60.8,117.4,61.5z M117.2,61c1.5-0.7,1.9-2,1.4-3.1c-0.5-1-1.8-1.6-3.2-1c-1.5,0.7-1.9,2-1.4,3.1
				C114.4,61.1,115.7,61.7,117.2,61z"/>
		</g>
		<g class="st2">
			<path class="st3" d="M116.9,69.1L116.9,69.1l-0.4-1.3l0.1,0c0.1,0.3,0.3,0.3,0.5,0.2l1-0.8l-0.6-2.2l-1.3-0.2
				c-0.3,0-0.4,0.1-0.4,0.4l-0.1,0l-0.2-0.9l0.1,0c0.1,0.3,0.3,0.4,0.6,0.4l4.3,0.5c0.3,0,0.5-0.1,0.5-0.3l0.1,0l0.2,0.6l-4,3
				C117,68.6,116.9,68.8,116.9,69.1z M118.3,67.1l2.3-1.8v0l-2.9-0.3L118.3,67.1z"/>
		</g>
		<g class="st2">
			<path class="st3" d="M120.1,74.3c-1.6,0.2-2.8-0.9-3-2.4c-0.2-1.5,0.8-2.8,2.3-3c1.5-0.2,2.8,0.9,3,2.4
				C122.6,72.7,121.7,74.1,120.1,74.3z M120.1,73.8c1.6-0.2,2.4-1.4,2.2-2.5s-1.2-2.1-2.8-1.9c-1.6,0.2-2.4,1.4-2.2,2.5
				C117.4,73,118.5,74,120.1,73.8z"/>
		</g>
		<g class="st2">
			<path class="st3" d="M116.8,82.5c-0.9-0.4-0.7-1.8,0.6-3.3c0.1-1.5,1.3-2.6,2.8-2.5c1.6,0.1,2.6,1.4,2.5,2.9
				c-0.1,1.5-1.2,2.7-2.8,2.6c-1.5-0.1-2.5-1.3-2.5-2.7C117,80.1,116.2,81.6,116.8,82.5L116.8,82.5z M117.5,79.3
				c-0.1,1.1,0.8,2.2,2.4,2.3s2.6-0.9,2.7-2.1c0.1-1.2-0.8-2.3-2.4-2.3C118.6,77.1,117.6,78.1,117.5,79.3z"/>
		</g>
		<g class="st2">
			<path class="st3" d="M121.5,88.2L121.5,88.2c-0.1-0.3-0.2-0.4-0.5-0.4l-2.6-0.5c-0.8-0.2-1.9-0.8-1.7-2.2c0.2-1.2,1.2-2,2.4-1.7
				l2.6,0.5c0.3,0.1,0.4,0,0.5-0.2l0.1,0l-0.2,1.2l-0.1,0c0-0.3-0.1-0.4-0.4-0.4l-2.6-0.5c-1.2-0.2-2,0.3-2.2,1.3
				c-0.2,1.3,0.8,1.9,1.6,2l2.6,0.5c0.3,0.1,0.4,0,0.5-0.2l0.1,0L121.5,88.2z"/>
		</g>
		<g class="st2">
			<path class="st3" d="M114.9,92.1L114.9,92.1l0.3-1.3l0.1,0c-0.1,0.3,0.1,0.4,0.3,0.4l1.3-0.1l0.7-2.2l-1-0.8
				c-0.3-0.2-0.4-0.1-0.5,0.1l-0.1,0l0.3-0.9l0.1,0c-0.1,0.3,0.1,0.5,0.3,0.6l3.3,2.7c0.3,0.2,0.5,0.2,0.6,0l0.1,0l-0.2,0.6l-5,0.4
				C115.2,91.7,115,91.8,114.9,92.1z M117.1,91.1l2.9-0.2v0l-2.2-1.8L117.1,91.1z"/>
		</g>
		<g class="st2">
			<path class="st3" d="M115,97.9c-1.4-0.7-1.8-2.2-1.1-3.7l0.8-1.6l0.1,0c-0.1,0.3,0,0.4,0.3,0.5l3.7,1.7c0.3,0.1,0.4,0.1,0.6-0.1
				l0.1,0l-0.8,1.6C117.8,97.9,116.4,98.5,115,97.9z M115.2,97.4c1.5,0.7,2.6,0.2,3.2-1.1l0.4-0.8l-4.4-2.1l-0.4,0.8
				C113.3,95.5,113.7,96.7,115.2,97.4z"/>
		</g>
		<g class="st2">
			<path class="st3" d="M110.2,100.9L110.2,100.9l0.3-0.7l2.7-0.1c0,0,0-0.1,0.1-0.1l0.5-0.8l-1.4-0.9c-0.2-0.2-0.4-0.2-0.6,0.1
				l-0.1-0.1l0.6-1l0.1,0.1c-0.1,0.2,0,0.4,0.2,0.5l3.4,2.2c0.2,0.2,0.4,0.2,0.6-0.1l0.1,0.1l-0.9,1.5c-0.6,1-1.4,1.3-2.2,0.8
				c-0.6-0.4-0.8-1.1-0.5-1.8l-2.1,0.1C110.6,100.6,110.3,100.7,110.2,100.9z M113.8,101.9c0.7,0.4,1.4,0.3,1.9-0.5l0.4-0.7
				l-2.3-1.4l-0.4,0.7C112.9,100.8,113.1,101.4,113.8,101.9z"/>
		</g>
		<g class="st2">
			<path class="st3" d="M106.9,104.9L106.9,104.9l0.8-1.1l0.1,0.1c-0.2,0.2-0.1,0.4,0.2,0.5l1.3,0.4l1.4-1.8l-0.7-1.1
				c-0.2-0.3-0.4-0.3-0.6-0.1l-0.1-0.1l0.6-0.8l0.1,0.1c-0.2,0.2-0.1,0.5,0,0.7l2.2,3.7c0.2,0.3,0.4,0.3,0.6,0.2l0.1,0.1l-0.4,0.5
				l-4.8-1.4C107.3,104.7,107.1,104.7,106.9,104.9z M109.3,104.8l2.8,0.8v0l-1.4-2.5L109.3,104.8z"/>
		</g>
		<g class="st2">
			<path class="st3" d="M104.9,110.3c-1.1-1.1-0.9-2.7,0.3-3.9l1.3-1.2l0.1,0.1c-0.2,0.2-0.1,0.4,0.1,0.6l2.8,2.9
				c0.2,0.2,0.4,0.3,0.6,0.1l0.1,0.1l-1.3,1.2C107.6,111.4,106,111.5,104.9,110.3z M105.3,110c1.1,1.2,2.4,1.1,3.4,0.1l0.7-0.6
				l-3.4-3.6l-0.7,0.6C104.2,107.6,104.1,108.8,105.3,110z"/>
		</g>
		<g class="st2">
			<path class="st3" d="M99.8,114.2c-0.9-1.3-0.6-2.9,0.7-3.8c1.2-0.9,2.8-0.7,3.8,0.6c0.9,1.3,0.6,2.9-0.7,3.8
				C102.3,115.6,100.7,115.4,99.8,114.2z M100.2,113.9c0.9,1.3,2.3,1.4,3.3,0.8s1.2-2.1,0.3-3.3c-0.9-1.3-2.3-1.4-3.3-0.8
				C99.5,111.2,99.2,112.6,100.2,113.9z"/>
		</g>
		<g class="st2">
			<path class="st3" d="M92.4,116.2c-0.2-0.8,0.3-1.5,1.1-1.8c0.5-0.2,1.3-0.4,1.9-0.3l0.4,0.9l-0.1,0c-0.6-0.8-1.5-0.8-2.1-0.5
				c-0.6,0.2-0.9,0.7-0.8,1.3c0.4,1.5,3.4-0.1,3.9,1.9c0.2,0.7-0.2,1.2-0.9,1.5c-0.5,0.2-1,0.3-1.6,0.1l-0.4-0.8l0.1,0
				c0.6,0.8,1.2,0.9,1.9,0.6c0.5-0.2,0.8-0.7,0.6-1.2C95.9,116.6,92.8,117.9,92.4,116.2z"/>
		</g>
		<g class="st2">
			<path class="st3" d="M89.1,120.7L89.1,120.7c0.3,0.2,0.7,0.6,1.2,0.4l0.8-0.3l-1.4-4.2c-0.1-0.3-0.2-0.4-0.5-0.3l0-0.1l1.1-0.4
				l0,0.1c-0.2,0.1-0.3,0.3-0.2,0.6l1.4,4.2l0.8-0.3c0.6-0.2,0.6-0.7,0.6-1.1l0.1,0l0.2,1l-3.8,1.3L89.1,120.7z"/>
		</g>
		<g class="st2">
			<path class="st3" d="M83.7,122.9L83.7,122.9c0.2-0.2,0.3-0.3,0.2-0.6l-0.5-2.6c-0.2-0.8,0-2.1,1.4-2.4c1.2-0.3,2.3,0.3,2.5,1.6
				l0.5,2.6c0.1,0.3,0.2,0.4,0.4,0.4l0,0.1l-1.2,0.2l0-0.1c0.3-0.1,0.3-0.2,0.2-0.5l-0.5-2.6c-0.2-1.2-1-1.7-2-1.5
				c-1.2,0.3-1.4,1.4-1.3,2.2l0.5,2.6c0.1,0.3,0.2,0.4,0.4,0.4l0,0.1L83.7,122.9z"/>
		</g>
		<g class="st2">
			<path class="st3" d="M77.5,120.9c-0.1-1.6,1-2.7,2.7-2.8l1.8-0.1l0,0.1c-0.3,0-0.3,0.2-0.3,0.5l0.3,4.1c0,0.3,0.1,0.4,0.4,0.4
				l0,0.1l-1.8,0.1C78.9,123.3,77.6,122.4,77.5,120.9z M78,120.8c0.1,1.6,1.1,2.4,2.6,2.3l0.9-0.1l-0.4-4.9l-0.9,0.1
				C78.7,118.3,77.9,119.2,78,120.8z"/>
		</g>
		<g class="st2">
			<path class="st3" d="M75.8,122.8l0.1-4.1c0-0.3-0.1-0.4-0.3-0.5v-0.1l1.2,0v0.1c-0.3,0-0.4,0.2-0.4,0.5l-0.1,4.1
				c0,0.3,0.1,0.4,0.3,0.5v0.1l-1.2,0v-0.1C75.7,123.3,75.8,123.1,75.8,122.8z"/>
		</g>
		<g class="st2">
			<path class="st3" d="M69.2,120.3c0.2-1.6,1.5-2.5,3-2.4c1.5,0.2,2.6,1.4,2.4,2.9c-0.2,1.6-1.5,2.5-3,2.4
				C70.2,123.1,69,121.8,69.2,120.3z M69.7,120.3c-0.2,1.6,0.8,2.6,1.9,2.8s2.3-0.7,2.5-2.3c0.2-1.6-0.8-2.6-1.9-2.8
				S69.9,118.8,69.7,120.3z"/>
		</g>
		<g class="st2">
			<path class="st3" d="M62.8,116.1L62.8,116.1l1.3,0.3l0,0.1c-0.3-0.1-0.5,0.1-0.4,0.4l0.2,1.3l2.2,0.6l0.8-1
				c0.2-0.3,0.1-0.4-0.2-0.5l0-0.1l0.9,0.3l0,0.1c-0.3-0.1-0.5,0.1-0.6,0.3l-2.6,3.4c-0.2,0.3-0.2,0.5,0.1,0.6l0,0.1l-0.6-0.2
				l-0.6-5C63.2,116.4,63.1,116.2,62.8,116.1z M63.9,118.3l0.3,2.9h0l1.7-2.3L63.9,118.3z"/>
		</g>
		<g class="st2">
			<path class="st3" d="M56.7,116.2c0.6-1.4,2.2-2,3.6-1.4c1.4,0.6,2.1,2.1,1.5,3.5c-0.6,1.4-2.2,2-3.5,1.4
				C56.8,119.2,56.1,117.7,56.7,116.2z M57.2,116.4c-0.6,1.5,0,2.8,1,3.2s2.4,0,3-1.5c0.6-1.5,0-2.8-1-3.2
				C59.2,114.5,57.8,115,57.2,116.4z"/>
		</g>
		<g class="st2">
			<path class="st3" d="M51.3,109.2c0.8-0.6,1.8,0.3,2.5,2.2c1.2,0.8,1.6,2.4,0.8,3.7c-0.9,1.3-2.5,1.6-3.8,0.7
				c-1.2-0.8-1.7-2.4-0.8-3.7c0.8-1.2,2.4-1.5,3.6-0.8C53.3,110.6,52.4,109.2,51.3,109.2L51.3,109.2z M53.7,111.5
				c-1-0.6-2.3-0.4-3.2,0.9c-0.9,1.3-0.5,2.7,0.4,3.3c1,0.6,2.4,0.4,3.2-0.9C55.1,113.5,54.7,112.1,53.7,111.5z"/>
		</g>
		<g class="st2">
			<path class="st3" d="M44.1,110.3L44.1,110.3c0.3,0.1,0.4,0,0.6-0.2l1.7-2c0.6-0.7,1.7-1.3,2.7-0.3c1,0.8,1.1,2,0.2,3l-1.7,2
				c-0.2,0.2-0.2,0.4,0,0.6l-0.1,0.1l-0.9-0.8l0.1-0.1c0.2,0.2,0.4,0.1,0.6-0.1l1.7-2c0.8-0.9,0.8-1.8,0-2.5c-1-0.8-2-0.3-2.5,0.3
				l-1.7,2c-0.2,0.2-0.2,0.4,0,0.6l-0.1,0.1L44.1,110.3z"/>
		</g>
		<g class="st2">
			<path class="st3" d="M44,102.7L44,102.7l1,0.9l-0.1,0.1c-0.2-0.2-0.4-0.2-0.5,0.1l-0.6,1.2l1.5,1.7l1.2-0.5
				c0.3-0.1,0.3-0.3,0.2-0.5l0.1-0.1l0.7,0.7l-0.1,0.1c-0.2-0.2-0.5-0.2-0.7-0.1l-4,1.5c-0.3,0.1-0.4,0.3-0.2,0.5l-0.1,0.1l-0.4-0.5
				l2.2-4.5C44.2,103.2,44.2,102.9,44,102.7z M43.8,105.1l-1.2,2.6l0,0l2.7-1L43.8,105.1z"/>
		</g>
		<g class="st2">
			<path class="st3" d="M39,99.8c1.3-0.9,2.8-0.5,3.8,0.9l1,1.5l-0.1,0.1c-0.2-0.2-0.3-0.2-0.6,0l-3.4,2.3c-0.2,0.2-0.3,0.3-0.2,0.6
				l-0.1,0.1l-1-1.5C37.5,102.3,37.7,100.7,39,99.8z M39.3,100.3c-1.4,0.9-1.5,2.2-0.7,3.4l0.5,0.8l4-2.8l-0.5-0.8
				C41.8,99.6,40.6,99.3,39.3,100.3z"/>
		</g>
		<g class="st2">
			<path class="st3" d="M38.8,94.2L38.8,94.2l0.4,0.6L38,97.2c0,0,0,0.1,0,0.1l0.4,0.8l1.5-0.8c0.3-0.1,0.3-0.3,0.2-0.5l0.1,0
				l0.5,1.1l-0.1,0c-0.2-0.2-0.3-0.2-0.6-0.1l-3.6,1.9c-0.3,0.1-0.4,0.3-0.2,0.5l-0.1,0l-0.8-1.6c-0.5-1-0.4-1.9,0.5-2.3
				c0.7-0.3,1.3-0.2,1.8,0.5l1-1.9C38.8,94.7,38.9,94.4,38.8,94.2z M36.1,96.8c-0.7,0.4-1,1-0.5,1.8l0.4,0.8l2.4-1.2l-0.4-0.8
				C37.5,96.6,36.8,96.5,36.1,96.8z"/>
		</g>
		<g class="st2">
			<path class="st3" d="M37,89.3L37,89.3l0.6,1.2l-0.1,0c-0.1-0.2-0.3-0.3-0.5-0.1l-1,0.9l0.8,2.1l1.3,0c0.3,0,0.4-0.2,0.3-0.4
				l0.1,0l0.3,0.9l-0.1,0c-0.1-0.3-0.3-0.3-0.6-0.3l-4.3,0c-0.3,0-0.5,0.2-0.4,0.4l-0.1,0l-0.2-0.6l3.6-3.5
				C36.9,89.8,37,89.6,37,89.3z M35.8,91.5l-2.1,2v0l2.9,0L35.8,91.5z"/>
		</g>
		<g class="st2">
			<path class="st3" d="M33.3,84.8c1.5-0.4,2.8,0.6,3.2,2.2l0.4,1.8l-0.1,0c-0.1-0.3-0.2-0.3-0.5-0.2l-4,0.9
				c-0.3,0.1-0.4,0.2-0.4,0.4l-0.1,0l-0.4-1.8C31.1,86.6,31.8,85.2,33.3,84.8z M33.4,85.3c-1.6,0.4-2.2,1.5-1.8,2.9l0.2,0.9l4.8-1.1
				l-0.2-0.9C36,85.7,35,85,33.4,85.3z"/>
		</g>
		<g class="st2">
			<path class="st3" d="M32.6,78.5c1.6-0.1,2.8,1,2.9,2.5c0.1,1.5-0.8,2.8-2.4,3c-1.5,0.1-2.8-1-2.9-2.5
				C30.1,79.9,31.1,78.6,32.6,78.5z M32.7,79c-1.6,0.2-2.4,1.3-2.3,2.4s1.1,2.1,2.7,2c1.6-0.2,2.4-1.3,2.3-2.4S34.3,78.8,32.7,79z"
				/>
		</g>
		<g id="STUDIO_AO_QUADRADO__STUDIO_AO_QUADRADO__STUDIO_AO_QUADRADO" class="st4">
			<path class="st3" d="M76.4,36c22.7,0,41.1,18.4,41.1,41.1s-18.4,41.1-41.1,41.1S35.3,99.8,35.3,77.1S76.4,36,76.4,36z"/>
			<path class="st3" d="M34.4,71.9c0.8,0.2,1.2,0.9,1.1,1.8c-0.1,0.6-0.3,1.3-0.7,1.8l-1-0.1l0-0.1c0.9-0.2,1.4-0.9,1.5-1.6
				c0.1-0.6-0.1-1.1-0.7-1.3c-1.5-0.4-1.6,3-3.6,2.5c-0.7-0.2-1-0.8-0.9-1.5c0-0.5,0.3-1,0.7-1.5l0.9,0.1l0,0.1
				c-0.9,0.2-1.4,0.6-1.5,1.3c0,0.5,0.2,1,0.7,1.1C32.5,74.7,32.8,71.4,34.4,71.9z"/>
			<path class="st3" d="M32.2,66.8L32.2,66.8c-0.4,0.1-0.9,0.3-1,0.9L31,68.5l4.4,0.8c0.3,0.1,0.5,0,0.5-0.3l0.1,0l-0.2,1.2l-0.1,0
				c0-0.3-0.1-0.4-0.4-0.4l-4.4-0.8l-0.1,0.8c-0.1,0.6,0.3,0.9,0.6,1.1l0,0.1l-0.9-0.3l0.7-3.9L32.2,66.8z"/>
			<path class="st3" d="M32.9,61L32.9,61c0,0.3,0.2,0.4,0.4,0.5l2.5,0.8c0.8,0.3,1.8,1,1.4,2.4c-0.4,1.2-1.4,1.8-2.6,1.4l-2.5-0.8
				c-0.3-0.1-0.4-0.1-0.5,0.2l-0.1,0l0.4-1.2l0.1,0c-0.1,0.3,0.1,0.4,0.3,0.5l2.5,0.8c1.1,0.3,2,0,2.3-1c0.4-1.2-0.5-1.9-1.3-2.2
				l-2.5-0.8c-0.3-0.1-0.4-0.1-0.5,0.2l-0.1,0L32.9,61z"/>
			<path class="st3" d="M37.7,56.6c1.4,0.7,1.9,2.2,1.2,3.7l-0.8,1.6l-0.1,0c0.1-0.3,0-0.4-0.3-0.5L34,59.7
				c-0.3-0.1-0.4-0.1-0.6,0.1l-0.1,0l0.8-1.6C34.8,56.6,36.3,55.9,37.7,56.6z M37.5,57c-1.5-0.7-2.6-0.2-3.2,1.2L33.9,59l4.5,2.1
				l0.4-0.8C39.3,58.9,39,57.7,37.5,57z"/>
			<path class="st3" d="M36.8,54.1l3.5,2c0.3,0.2,0.4,0.2,0.6-0.1l0.1,0.1l-0.6,1l-0.1,0c0.1-0.3,0-0.4-0.2-0.5l-3.5-2
				c-0.2-0.1-0.4-0.2-0.6,0.1l-0.1-0.1l0.6-1l0.1,0C36.5,53.9,36.5,54,36.8,54.1z"/>
			<path class="st3" d="M42.3,49.6c1.3,0.9,1.5,2.5,0.6,3.8c-0.9,1.2-2.5,1.6-3.8,0.7c-1.3-0.9-1.5-2.5-0.6-3.8
				C39.4,49.1,41,48.7,42.3,49.6z M42,50.1c-1.3-0.9-2.7-0.6-3.3,0.3c-0.7,0.9-0.5,2.3,0.8,3.3c1.3,0.9,2.7,0.6,3.3-0.3
				C43.4,52.4,43.3,51,42,50.1z"/>
			<path class="st3" d="M49,46.2L49,46.2l-0.9,1l-0.1-0.1c0.2-0.2,0.2-0.4-0.1-0.5l-1.2-0.5l-1.6,1.6l0.5,1.2
				c0.1,0.3,0.3,0.3,0.5,0.1l0.1,0.1l-0.7,0.7l-0.1-0.1c0.2-0.2,0.2-0.5,0-0.7L43.8,45c-0.1-0.3-0.3-0.4-0.5-0.2l-0.1-0.1l0.5-0.5
				l4.7,1.9C48.6,46.3,48.8,46.3,49,46.2z M46.6,46l-2.7-1.1l0,0l1.2,2.6L46.6,46z"/>
			<path class="st3" d="M51.9,40.8c1,1.2,0.7,2.9-0.5,3.8s-2.8,0.8-3.8-0.5c-1-1.2-0.7-2.9,0.5-3.8S51,39.5,51.9,40.8z M51.5,41.1
				c-1-1.3-2.4-1.4-3.3-0.7S47,42.5,48,43.8c1,1.3,2.4,1.4,3.3,0.7C52.2,43.7,52.5,42.3,51.5,41.1z"/>
			<path class="st3" d="M60.7,39.5c0.1,1-1.2,1.5-3.2,1.1c-1.3,0.7-2.9,0.2-3.6-1.2c-0.7-1.4-0.1-2.9,1.2-3.6
				c1.3-0.7,2.9-0.3,3.7,1.1c0.7,1.3,0.2,2.8-1,3.5C58.5,40.5,60.2,40.4,60.7,39.5L60.7,39.5z M57.5,40.5c1-0.5,1.5-1.8,0.8-3.3
				c-0.7-1.4-2.1-1.8-3.1-1.2c-1,0.5-1.5,1.8-0.8,3.3C55.1,40.7,56.5,41,57.5,40.5z"/>
			<path class="st3" d="M63.2,32.6L63.2,32.6C63,32.8,63,33,63.1,33.2l0.9,2.5c0.3,0.8,0.3,2.1-1,2.6c-1.2,0.4-2.3,0-2.7-1.2
				l-0.9-2.5c-0.1-0.3-0.2-0.4-0.5-0.3l0-0.1l1.1-0.4l0,0.1c-0.3,0.1-0.3,0.3-0.2,0.6l0.9,2.5c0.4,1.1,1.2,1.6,2.2,1.2
				c1.2-0.4,1.2-1.6,1-2.3L63,33.3c-0.1-0.3-0.2-0.4-0.5-0.3l0-0.1L63.2,32.6z"/>
			<path class="st3" d="M69.9,36.3L69.9,36.3l-1.3,0.4l0-0.1c0.3-0.1,0.4-0.3,0.2-0.5L68,35l-2.2,0.5l-0.2,1.3
				c0,0.3,0.1,0.4,0.4,0.4l0,0.1l-0.9,0.2l0-0.1c0.3-0.1,0.4-0.3,0.4-0.6l0.6-4.2c0.1-0.3-0.1-0.5-0.3-0.5l0-0.1l0.6-0.1l2.9,4.1
				C69.4,36.2,69.6,36.3,69.9,36.3z M67.9,34.9l-1.7-2.4h0l-0.4,2.8L67.9,34.9z"/>
			<path class="st3" d="M74.9,33.3c0.1,1.6-1,2.7-2.6,2.8l-1.8,0.2l0-0.1c0.3,0,0.3-0.2,0.3-0.5l-0.4-4.1c0-0.3-0.1-0.4-0.4-0.4
				l0-0.1l1.8-0.2C73.5,30.8,74.7,31.8,74.9,33.3z M74.4,33.4c-0.2-1.6-1.1-2.4-2.6-2.2l-0.9,0.1l0.4,4.9l0.9-0.1
				C73.7,35.9,74.5,35,74.4,33.4z"/>
			<path class="st3" d="M79.9,35.9L79.9,35.9L79.1,36l-1.5-2.3c0,0-0.1,0-0.1,0l-0.9,0l-0.1,1.7c0,0.3,0.1,0.4,0.3,0.5v0.1l-1.2,0
				v-0.1c0.3,0,0.3-0.2,0.4-0.5l0.1-4.1c0-0.3-0.1-0.5-0.3-0.5v-0.1l1.7,0c1.2,0,1.8,0.6,1.8,1.5c0,0.8-0.5,1.2-1.3,1.4l1.2,1.8
				C79.5,35.7,79.7,35.9,79.9,35.9z M78.9,32.3c0-0.8-0.4-1.4-1.3-1.4l-0.8,0l-0.1,2.7l0.8,0C78.4,33.6,78.9,33.1,78.9,32.3z"/>
			<path class="st3" d="M85,36.7L85,36.7l-1.3-0.1l0-0.1c0.3,0,0.4-0.1,0.4-0.4l-0.3-1.3l-2.2-0.3l-0.6,1.1c-0.2,0.3,0,0.4,0.2,0.5
				l0,0.1l-1-0.1l0-0.1c0.3,0,0.5-0.2,0.6-0.4l2.1-3.7c0.2-0.3,0.1-0.5-0.1-0.6l0-0.1l0.6,0.1l1.2,4.9C84.6,36.4,84.8,36.6,85,36.7z
				 M83.7,34.7L83,31.8h0l-1.4,2.5L83.7,34.7z"/>
			<path class="st3" d="M90.7,35.7c-0.4,1.5-1.9,2.2-3.5,1.7l-1.7-0.5l0-0.1c0.3,0.1,0.4-0.1,0.5-0.3l1.1-3.9
				c0.1-0.3,0.1-0.4-0.2-0.5l0-0.1l1.7,0.5C90.3,32.8,91.2,34.2,90.7,35.7z M90.2,35.5c0.4-1.6-0.2-2.6-1.7-3l-0.9-0.2L86.4,37
				l0.9,0.2C88.7,37.7,89.8,37.1,90.2,35.5z"/>
			<path class="st3" d="M96.6,38.2c-0.6,1.4-2.2,2-3.6,1.3c-1.4-0.6-2-2.1-1.4-3.5c0.6-1.4,2.2-2,3.6-1.3
				C96.6,35.3,97.3,36.8,96.6,38.2z M96.2,38c0.7-1.5,0.1-2.8-1-3.2c-1.1-0.5-2.4,0-3.1,1.4c-0.7,1.5-0.1,2.8,1,3.2
				C94.2,39.9,95.5,39.5,96.2,38z"/>
			<path class="st3" d="M102.1,43.5c-0.6,0.6-1.4,0.5-2.1,0c-0.4-0.3-1-0.9-1.2-1.5l0.6-0.8l0.1,0c-0.3,0.9,0.1,1.7,0.6,2.1
				c0.5,0.4,1.1,0.5,1.5,0c1.2-1.1-1.8-2.9-0.3-4.3c0.5-0.5,1.2-0.5,1.8,0c0.4,0.3,0.7,0.8,0.9,1.3l-0.5,0.8l-0.1,0
				c0.3-0.9,0.2-1.5-0.4-1.9c-0.4-0.3-1-0.3-1.3,0.1C100.7,40.4,103.3,42.3,102.1,43.5z"/>
			<path class="st3" d="M107.7,44.1L107.7,44.1c0.1-0.4,0.2-0.9-0.2-1.3l-0.6-0.5l-2.9,3.4c-0.2,0.2-0.2,0.4,0,0.6l-0.1,0.1
				l-0.9-0.8l0.1-0.1c0.2,0.2,0.4,0.1,0.6-0.1l2.9-3.4l-0.6-0.5c-0.5-0.4-1-0.2-1.3,0l-0.1-0.1l0.7-0.6l3,2.6L107.7,44.1z"/>
			<path class="st3" d="M112.3,47.7L112.3,47.7c-0.3-0.1-0.4-0.1-0.7,0.1l-1.9,1.8c-0.6,0.6-1.8,1.1-2.8,0c-0.8-0.9-0.9-2.1,0.1-3
				l1.9-1.8c0.2-0.2,0.3-0.3,0.1-0.6l0.1-0.1l0.8,0.9l-0.1,0.1c-0.2-0.2-0.4-0.1-0.6,0l-1.9,1.8c-0.9,0.8-1,1.8-0.3,2.5
				c0.9,1,1.9,0.5,2.5,0l1.9-1.8c0.2-0.2,0.3-0.3,0.1-0.6l0.1-0.1L112.3,47.7z"/>
			<path class="st3" d="M113.7,54c-1.3,0.9-2.8,0.5-3.8-0.9l-1-1.5l0.1,0c0.2,0.2,0.3,0.2,0.6,0l3.3-2.3c0.2-0.2,0.3-0.3,0.2-0.6
				l0.1-0.1l1,1.5C115.1,51.6,114.9,53.1,113.7,54z M113.4,53.6c1.3-0.9,1.5-2.2,0.6-3.4l-0.5-0.7l-4,2.8L110,53
				C110.8,54.3,112,54.5,113.4,53.6z"/>
			<path class="st3" d="M116.2,54.5l-3.5,2c-0.3,0.2-0.3,0.3-0.2,0.5l-0.1,0l-0.6-1l0.1,0c0.2,0.2,0.3,0.2,0.6,0.1l3.5-2
				c0.2-0.1,0.3-0.3,0.2-0.5l0.1,0l0.6,1l-0.1,0C116.6,54.3,116.5,54.3,116.2,54.5z"/>
			<path class="st3" d="M117.4,61.5c-1.4,0.7-2.9,0-3.6-1.4c-0.6-1.4-0.1-2.9,1.3-3.6c1.4-0.7,2.9,0,3.6,1.4
				C119.3,59.2,118.8,60.8,117.4,61.5z M117.2,61c1.5-0.7,1.9-2,1.4-3.1c-0.5-1-1.8-1.6-3.2-1c-1.5,0.7-1.9,2-1.4,3.1
				C114.4,61.1,115.7,61.7,117.2,61z"/>
			<path class="st3" d="M116.9,69.1L116.9,69.1l-0.4-1.3l0.1,0c0.1,0.3,0.3,0.3,0.5,0.2l1-0.8l-0.6-2.2l-1.3-0.2
				c-0.3,0-0.4,0.1-0.4,0.4l-0.1,0l-0.2-0.9l0.1,0c0.1,0.3,0.3,0.4,0.6,0.4l4.3,0.5c0.3,0,0.5-0.1,0.5-0.3l0.1,0l0.2,0.6l-4,3
				C117,68.6,116.9,68.8,116.9,69.1z M118.3,67.1l2.3-1.8v0l-2.9-0.3L118.3,67.1z"/>
			<path class="st3" d="M120.1,74.3c-1.6,0.2-2.8-0.9-3-2.4c-0.2-1.5,0.8-2.8,2.3-3c1.6-0.2,2.8,0.9,3,2.4
				C122.6,72.7,121.7,74.1,120.1,74.3z M120.1,73.8c1.6-0.2,2.4-1.4,2.2-2.5c-0.1-1.1-1.2-2.1-2.8-1.9c-1.6,0.2-2.4,1.4-2.2,2.5
				C117.4,73,118.5,74,120.1,73.8z"/>
			<path class="st3" d="M116.8,82.5c-0.9-0.4-0.7-1.8,0.6-3.3c0.1-1.5,1.3-2.6,2.8-2.5c1.6,0.1,2.6,1.4,2.5,2.9
				c-0.1,1.5-1.2,2.7-2.8,2.6c-1.5-0.1-2.5-1.3-2.5-2.7C117,80.1,116.3,81.6,116.8,82.5L116.8,82.5z M117.5,79.3
				c-0.1,1.1,0.8,2.2,2.4,2.3c1.6,0.1,2.6-0.9,2.7-2.1c0.1-1.2-0.8-2.3-2.4-2.3C118.6,77.1,117.6,78.1,117.5,79.3z"/>
			<path class="st3" d="M121.5,88.2L121.5,88.2c-0.1-0.3-0.2-0.4-0.5-0.4l-2.6-0.5c-0.8-0.2-1.9-0.8-1.7-2.2c0.2-1.2,1.2-2,2.4-1.7
				l2.6,0.5c0.3,0.1,0.4,0,0.5-0.2l0.1,0l-0.2,1.2l-0.1,0c0-0.3-0.1-0.4-0.4-0.4l-2.6-0.5c-1.2-0.2-2,0.3-2.2,1.3
				c-0.2,1.3,0.8,1.9,1.6,2l2.6,0.5c0.3,0.1,0.4,0,0.5-0.3l0.1,0L121.5,88.2z"/>
			<path class="st3" d="M114.9,92.1L114.9,92.1l0.3-1.3l0.1,0c-0.1,0.3,0.1,0.4,0.3,0.4l1.3-0.1l0.7-2.2l-1-0.8
				c-0.3-0.2-0.4-0.1-0.5,0.1l-0.1,0l0.3-0.9l0.1,0c-0.1,0.3,0.1,0.5,0.3,0.7l3.3,2.7c0.3,0.2,0.5,0.2,0.6,0l0.1,0l-0.2,0.6l-5,0.4
				C115.2,91.7,115,91.8,114.9,92.1z M117.1,91.1l2.9-0.2v0l-2.2-1.8L117.1,91.1z"/>
			<path class="st3" d="M115,97.9c-1.4-0.7-1.8-2.2-1.1-3.7l0.8-1.6l0.1,0c-0.1,0.3,0,0.4,0.3,0.5l3.7,1.7c0.3,0.1,0.4,0.1,0.6-0.1
				l0.1,0l-0.8,1.6C117.8,97.9,116.4,98.5,115,97.9z M115.2,97.4c1.5,0.7,2.6,0.2,3.2-1.1l0.4-0.8l-4.4-2.1l-0.4,0.8
				C113.3,95.5,113.7,96.7,115.2,97.4z"/>
			<path class="st3" d="M110.2,100.9L110.2,100.9l0.3-0.7l2.7-0.1c0,0,0-0.1,0.1-0.1l0.5-0.8l-1.4-0.9c-0.2-0.2-0.4-0.2-0.6,0.1
				l-0.1-0.1l0.6-1l0.1,0.1c-0.1,0.2,0,0.4,0.2,0.5l3.4,2.2c0.2,0.2,0.4,0.2,0.6-0.1l0.1,0.1l-0.9,1.5c-0.6,1-1.4,1.3-2.2,0.8
				c-0.6-0.4-0.8-1.1-0.5-1.8l-2.2,0.1C110.6,100.6,110.3,100.7,110.2,100.9z M113.8,101.9c0.7,0.4,1.4,0.3,1.9-0.5l0.4-0.7
				l-2.3-1.4l-0.4,0.7C112.9,100.8,113.1,101.4,113.8,101.9z"/>
			<path class="st3" d="M106.9,104.9L106.9,104.9l0.8-1.1l0.1,0.1c-0.2,0.2-0.1,0.4,0.2,0.5l1.3,0.4l1.4-1.8l-0.7-1.1
				c-0.2-0.3-0.4-0.3-0.6-0.1l-0.1-0.1l0.6-0.8l0.1,0.1c-0.2,0.2-0.1,0.5,0,0.7l2.2,3.7c0.2,0.3,0.4,0.3,0.6,0.2l0.1,0.1l-0.4,0.5
				l-4.8-1.4C107.4,104.7,107.1,104.7,106.9,104.9z M109.3,104.8l2.8,0.8v0l-1.4-2.5L109.3,104.8z"/>
			<path class="st3" d="M104.9,110.3c-1.1-1.1-0.9-2.7,0.3-3.9l1.3-1.2l0.1,0.1c-0.2,0.2-0.1,0.4,0.1,0.6l2.8,2.9
				c0.2,0.2,0.4,0.3,0.6,0.1l0.1,0.1l-1.3,1.2C107.6,111.4,106,111.5,104.9,110.3z M105.3,110c1.1,1.2,2.4,1.1,3.4,0.1l0.7-0.6
				l-3.4-3.6l-0.7,0.6C104.2,107.6,104.1,108.8,105.3,110z"/>
			<path class="st3" d="M99.8,114.2c-0.9-1.3-0.6-2.9,0.7-3.8c1.2-0.9,2.9-0.7,3.8,0.6c0.9,1.3,0.6,2.9-0.7,3.8
				C102.3,115.6,100.7,115.4,99.8,114.2z M100.2,113.9c0.9,1.3,2.3,1.4,3.3,0.8c0.9-0.7,1.2-2.1,0.3-3.3c-0.9-1.3-2.3-1.4-3.3-0.8
				C99.5,111.2,99.2,112.6,100.2,113.9z"/>
			<path class="st3" d="M92.4,116.2c-0.2-0.8,0.3-1.5,1.1-1.8c0.5-0.2,1.3-0.4,1.9-0.3l0.4,0.9l-0.1,0c-0.6-0.8-1.5-0.8-2.1-0.5
				c-0.6,0.2-0.9,0.7-0.8,1.3c0.4,1.6,3.4-0.1,3.9,1.9c0.2,0.7-0.2,1.2-0.9,1.5c-0.5,0.2-1,0.3-1.6,0.1l-0.4-0.8l0.1,0
				c0.6,0.8,1.2,0.9,1.9,0.6c0.5-0.2,0.8-0.7,0.6-1.2C95.9,116.6,92.8,117.9,92.4,116.2z"/>
			<path class="st3" d="M89.1,120.7L89.1,120.7c0.3,0.2,0.7,0.6,1.2,0.4l0.8-0.3l-1.4-4.3c-0.1-0.3-0.2-0.4-0.5-0.3l0-0.1l1.1-0.4
				l0,0.1c-0.2,0.1-0.3,0.3-0.2,0.6l1.4,4.3l0.8-0.3c0.6-0.2,0.6-0.7,0.6-1.1l0.1,0l0.2,1l-3.8,1.3L89.1,120.7z"/>
			<path class="st3" d="M83.7,122.9L83.7,122.9c0.2-0.2,0.3-0.3,0.2-0.6l-0.6-2.6c-0.2-0.8,0-2.1,1.4-2.4c1.2-0.3,2.3,0.3,2.5,1.6
				l0.6,2.6c0.1,0.3,0.2,0.4,0.4,0.4l0,0.1l-1.2,0.2l0-0.1c0.3-0.1,0.3-0.2,0.2-0.5l-0.5-2.6c-0.2-1.2-1-1.7-2-1.5
				c-1.3,0.3-1.4,1.4-1.3,2.2l0.5,2.6c0.1,0.3,0.2,0.4,0.4,0.4l0,0.1L83.7,122.9z"/>
			<path class="st3" d="M77.5,120.9c-0.1-1.6,1-2.7,2.7-2.8l1.8-0.1l0,0.1c-0.3,0-0.3,0.2-0.3,0.5l0.3,4.1c0,0.3,0.1,0.4,0.4,0.4
				l0,0.1l-1.8,0.1C78.9,123.4,77.6,122.4,77.5,120.9z M78,120.8c0.1,1.6,1.1,2.4,2.6,2.3l0.9-0.1l-0.4-4.9l-0.9,0.1
				C78.7,118.3,77.9,119.2,78,120.8z"/>
			<path class="st3" d="M75.8,122.8l0.1-4.1c0-0.3-0.1-0.4-0.3-0.5v-0.1l1.2,0v0.1c-0.3,0-0.4,0.2-0.4,0.5l-0.1,4.1
				c0,0.3,0.1,0.4,0.3,0.5v0.1l-1.2,0v-0.1C75.7,123.3,75.8,123.1,75.8,122.8z"/>
			<path class="st3" d="M69.2,120.3c0.2-1.6,1.5-2.5,3-2.4c1.5,0.2,2.6,1.4,2.4,2.9c-0.2,1.6-1.5,2.5-3,2.4
				C70.1,123.1,69,121.8,69.2,120.3z M69.7,120.3c-0.2,1.6,0.8,2.6,1.9,2.8s2.3-0.7,2.5-2.3c0.2-1.6-0.8-2.6-1.9-2.8
				C71,117.9,69.9,118.8,69.7,120.3z"/>
			<path class="st3" d="M62.8,116.1L62.8,116.1l1.3,0.3l0,0.1c-0.3-0.1-0.5,0.1-0.4,0.4l0.2,1.3l2.2,0.6l0.8-1
				c0.2-0.3,0.1-0.4-0.2-0.5l0-0.1l0.9,0.3l0,0.1c-0.3-0.1-0.5,0.1-0.6,0.3l-2.6,3.4c-0.2,0.3-0.2,0.5,0.1,0.6l0,0.1l-0.6-0.2
				l-0.6-5C63.2,116.4,63.1,116.2,62.8,116.1z M63.9,118.3l0.3,2.9h0l1.7-2.3L63.9,118.3z"/>
			<path class="st3" d="M56.7,116.2c0.6-1.4,2.2-2,3.6-1.4c1.4,0.6,2.1,2.1,1.5,3.5c-0.6,1.4-2.2,2-3.5,1.4
				C56.8,119.2,56.1,117.7,56.7,116.2z M57.2,116.4c-0.6,1.5,0,2.8,1,3.2s2.4,0,3-1.5c0.6-1.5,0-2.8-1-3.2
				C59.2,114.5,57.8,115,57.2,116.4z"/>
			<path class="st3" d="M51.3,109.2c0.8-0.6,1.8,0.3,2.5,2.2c1.2,0.8,1.6,2.4,0.8,3.7c-0.9,1.3-2.5,1.6-3.8,0.7
				c-1.2-0.8-1.7-2.4-0.8-3.7c0.8-1.2,2.4-1.5,3.6-0.8C53.3,110.6,52.4,109.2,51.3,109.2L51.3,109.2z M53.7,111.5
				c-1-0.6-2.3-0.4-3.2,0.9c-0.9,1.3-0.5,2.7,0.4,3.3c1,0.6,2.4,0.4,3.2-0.9C55.1,113.5,54.7,112.1,53.7,111.5z"/>
			<path class="st3" d="M44.1,110.3L44.1,110.3c0.3,0.1,0.4,0,0.6-0.2l1.7-2c0.6-0.7,1.7-1.3,2.7-0.3c1,0.8,1.1,2,0.2,3l-1.7,2
				c-0.2,0.2-0.2,0.4,0,0.6l-0.1,0.1l-0.9-0.8l0.1-0.1c0.2,0.2,0.4,0.1,0.6-0.1l1.7-2c0.8-0.9,0.8-1.8,0-2.5c-1-0.8-2-0.3-2.5,0.3
				l-1.7,2c-0.2,0.2-0.2,0.4,0,0.6l-0.1,0.1L44.1,110.3z"/>
			<path class="st3" d="M44,102.7L44,102.7l1,0.9l-0.1,0.1c-0.2-0.2-0.4-0.2-0.5,0.1l-0.6,1.2l1.5,1.7l1.2-0.5
				c0.3-0.1,0.3-0.3,0.2-0.5l0.1-0.1l0.7,0.7l-0.1,0.1c-0.2-0.2-0.5-0.2-0.7-0.1l-4,1.5c-0.3,0.1-0.4,0.3-0.2,0.5l-0.1,0.1l-0.4-0.5
				l2.2-4.5C44.2,103.2,44.2,102.9,44,102.7z M43.8,105.1l-1.2,2.6v0l2.7-1L43.8,105.1z"/>
			<path class="st3" d="M39,99.8c1.3-0.9,2.8-0.5,3.8,0.9l1,1.5l-0.1,0.1c-0.2-0.2-0.3-0.2-0.6,0l-3.4,2.3c-0.2,0.2-0.3,0.3-0.2,0.6
				l-0.1,0.1l-1-1.5C37.5,102.3,37.7,100.7,39,99.8z M39.3,100.3c-1.4,0.9-1.5,2.2-0.7,3.4l0.5,0.8l4-2.8l-0.5-0.8
				C41.8,99.6,40.6,99.3,39.3,100.3z"/>
			<path class="st3" d="M38.8,94.2L38.8,94.2l0.4,0.6L38,97.2c0,0,0,0.1,0,0.1l0.4,0.8l1.5-0.8c0.3-0.1,0.3-0.3,0.2-0.5l0.1,0
				l0.5,1.1l-0.1,0c-0.2-0.2-0.3-0.2-0.6-0.1l-3.6,1.9c-0.3,0.1-0.4,0.3-0.2,0.5l-0.1,0l-0.8-1.6c-0.5-1-0.4-1.9,0.5-2.3
				c0.7-0.3,1.3-0.2,1.8,0.5l1-1.9C38.8,94.7,38.9,94.4,38.8,94.2z M36.1,96.8c-0.7,0.4-1,1-0.5,1.8l0.4,0.8l2.4-1.2l-0.4-0.8
				C37.5,96.6,36.8,96.5,36.1,96.8z"/>
			<path class="st3" d="M37,89.3L37,89.3l0.6,1.2l-0.1,0c-0.1-0.2-0.3-0.3-0.5-0.1l-1,0.9l0.8,2.1l1.3,0c0.3,0,0.4-0.2,0.3-0.4
				l0.1,0l0.3,0.9l-0.1,0c-0.1-0.3-0.3-0.3-0.6-0.3l-4.3,0c-0.3,0-0.5,0.2-0.4,0.4l-0.1,0l-0.2-0.6l3.6-3.5
				C36.9,89.8,37,89.6,37,89.3z M35.8,91.5l-2.1,2v0l2.9,0L35.8,91.5z"/>
			<path class="st3" d="M33.3,84.8c1.5-0.4,2.8,0.6,3.2,2.2l0.4,1.8l-0.1,0c-0.1-0.3-0.2-0.3-0.5-0.2l-4,0.9
				c-0.3,0.1-0.4,0.2-0.4,0.4l-0.1,0l-0.4-1.8C31.1,86.6,31.8,85.2,33.3,84.8z M33.4,85.3c-1.6,0.4-2.2,1.5-1.8,2.9l0.2,0.9l4.8-1.1
				l-0.2-0.9C36,85.7,35,84.9,33.4,85.3z"/>
			<path class="st3" d="M32.6,78.5c1.6-0.2,2.8,1,2.9,2.5c0.1,1.5-0.8,2.8-2.4,3c-1.5,0.1-2.8-1-2.9-2.5
				C30.1,79.9,31.1,78.6,32.6,78.5z M32.7,79c-1.6,0.2-2.4,1.3-2.3,2.4c0.1,1.1,1.1,2.1,2.7,2c1.6-0.2,2.4-1.3,2.3-2.4
				C35.3,79.8,34.3,78.8,32.7,79z"/>
		</g>
	</g>
	<g id="A_1_">
		<g>
			<path class="st3" d="M152.9,129.4v2.3h-34.1v-2.3c7-0.6,10.4-5.1,7.5-11.8l-13-30.7H56l-11.9,30.7c-2.8,7.7,0.6,11.3,7.5,11.9
				v2.3H27v-2.3c7.2-0.6,10.9-5.5,13.4-11.8L79.2,16c3-7.9,0.4-12.8-5.5-13.5V0h16.4l49.1,117.6C141.8,124,145.7,128.9,152.9,129.4z
				 M111.9,83.3L83.5,15.2h-0.2L57.3,83.3H111.9z"/>
		</g>
	</g>
	<g id="A">
		<g>
			<path class="st3" d="M13.7,117.6L62.8,0h16.4v2.4c-5.8,0.8-8.5,5.6-5.5,13.5l38.8,101.6c2.4,6.4,6.2,11.3,13.4,11.9v2.3h-24.6
				v-2.3c7-0.6,10.3-4.1,7.5-11.8L96.9,86.9H39.5l-13,30.7c-2.8,6.8,0.6,11.3,7.5,11.9v2.3H0v-2.3C7.2,128.9,11.1,124,13.7,117.6z
				 M95.6,83.3l-26-68.1h-0.2L41,83.3C41,83.3,95.6,83.3,95.6,83.3z"/>
		</g>
	</g>
</g>
</svg>
