<?xml version="1.0" encoding="utf-8"?>
<!-- Generator: Adobe Illustrator 25.2.1, SVG Export Plug-In . SVG Version: 6.00 Build 0)  -->
<svg version="1.1" id="Camada_1" xmlns="http://www.w3.org/2000/svg" xmlns:xlink="http://www.w3.org/1999/xlink" x="0px" y="0px"
	 viewBox="0 0 512 512" style="enable-background:new 0 0 512 512;" xml:space="preserve">
<style type="text/css">
	.st0{fill:#FFFFFF;}
</style>
<path class="st0" d="M391,480c-19.5,0-46.9-7.1-88-30c-49.9-28-88.6-53.9-138.2-103.4C116.9,298.8,93.6,267.8,61,208.4
	c-36.8-67-30.6-102.1-23.5-117.1C45.8,73.4,58.2,62.7,74.1,52c9.1-5.9,18.6-11,28.6-15.2c1-0.4,1.9-0.8,2.8-1.2
	c4.9-2.2,12.4-5.6,22-2c6.3,2.4,12,7.2,20.9,16c18.2,17.9,43,57.8,52.2,77.4c6.1,13.2,10.2,21.9,10.2,31.7
	c0,11.4-5.8,20.3-12.8,29.8c-1.3,1.8-2.6,3.5-3.9,5.2c-7.6,10-9.3,12.9-8.2,18.1c2.2,10.4,18.9,41.2,46.2,68.5s57.3,42.9,67.7,45.1
	c5.4,1.1,8.3-0.6,18.6-8.5c1.5-1.1,3-2.3,4.6-3.5c10.7-7.9,19.1-13.5,30.3-13.5h0.1c9.7,0,18.1,4.2,31.9,11.2
	c18,9.1,59.1,33.6,77.1,51.8c8.8,8.8,13.7,14.5,16,20.8c3.6,9.5,0.2,17-2,22c-0.4,0.8-0.8,1.7-1.2,2.8c-4.2,10-9.3,19.5-15.3,28.6
	c-10.6,15.9-21.4,28.2-39.4,36.6C411.3,477.9,401.2,480.1,391,480z"/>
</svg>
