<?xml version="1.0" encoding="utf-8"?>
<!-- Generator: Adobe Illustrator 25.2.1, SVG Export Plug-In . SVG Version: 6.00 Build 0)  -->
<svg version="1.1" id="Camada_1" xmlns="http://www.w3.org/2000/svg" xmlns:xlink="http://www.w3.org/1999/xlink" x="0px" y="0px"
	 viewBox="0 0 512 512" style="enable-background:new 0 0 512 512;" xml:space="preserve">
<style type="text/css">
	.st0{fill:#FFFFFF;}
</style>
<path class="st0" d="M448.7,154.4L274.1,68.2c-11.4-5.6-24.8-5.6-36.2,0L63.3,154.4C44.1,163.8,32,183.2,32,204.5v184.6
	c0,30.9,25.4,56,56.7,56h334.7c31.2,0,56.7-25.1,56.7-56V204.5C480,183.2,467.9,163.8,448.7,154.4z M252.4,96.8c2.3-1.1,5-1.1,7.2,0
	L429,180.5l-172,85c-2.3,1.1-5,1.1-7.2,0L80.3,181.8L252.4,96.8z"/>
</svg>
