<?xml version="1.0" encoding="utf-8"?>
<!-- Generator: Adobe Illustrator 25.2.1, SVG Export Plug-In . SVG Version: 6.00 Build 0)  -->
<svg version="1.1" id="Camada_1" xmlns="http://www.w3.org/2000/svg" xmlns:xlink="http://www.w3.org/1999/xlink" x="0px" y="0px"
	 viewBox="0 0 512 512" style="enable-background:new 0 0 512 512;" xml:space="preserve">
<style type="text/css">
	.st0{fill:#FFFFFF;}
</style>
<path class="st0" d="M216.4,163.7c5.1,5,5.1,13.3,0.1,18.4L155.8,243h231.3c7.1,0,12.9,5.8,12.9,13c0,7.2-5.8,13-12.9,13H155.8
	l60.8,60.9c5,5.1,4.9,13.3-0.1,18.4c-5.1,5-13.2,5-18.3-0.1l-82.4-83c-1.1-1.2-2-2.5-2.7-4.1s-1-3.3-1-5c0-3.4,1.3-6.6,3.7-9.1
	l82.4-83C203.1,158.8,211.3,158.7,216.4,163.7L216.4,163.7z"/>
</svg>
