<?xml version="1.0" encoding="utf-8"?>
<!-- Generator: Adobe Illustrator 25.2.1, SVG Export Plug-In . SVG Version: 6.00 Build 0)  -->
<svg version="1.1" id="Camada_1" xmlns="http://www.w3.org/2000/svg" xmlns:xlink="http://www.w3.org/1999/xlink" x="0px" y="0px"
	 viewBox="0 0 512 512" style="enable-background:new 0 0 512 512;" xml:space="preserve">
<style type="text/css">
	.st0{fill:#FFFFFF;}
</style>
<path class="st0" d="M295.6,163.7c-5.1,5-5.1,13.3-0.1,18.4l60.8,60.9H124.9c-7.1,0-12.9,5.8-12.9,13c0,7.2,5.8,13,12.9,13h231.3
	l-60.8,60.9c-5,5.1-4.9,13.3,0.1,18.4c5.1,5,13.2,5,18.3-0.1l82.4-83c1.1-1.2,2-2.5,2.7-4.1s1-3.3,1-5c0-3.4-1.3-6.6-3.7-9.1
	l-82.4-83C308.9,158.8,300.7,158.7,295.6,163.7L295.6,163.7z"/>
</svg>
